<?xml version="1.0" encoding="ISO-8859-1" standalone="no"?><svg xmlns="http://www.w3.org/2000/svg" version="1.1" xmlns:xlink="http://www.w3.org/1999/xlink"  >
<polygon style="stroke:rgb(0,0,0); stroke-width:4; fill:rgb(92,0,162); " points="712.24594887,748.24594887 730.24594887,779.422863406 766.24594887,779.422863406 784.24594887,748.24594887 766.24594887,717.069034334 730.24594887,717.069034334 "  />
<polygon style="stroke:rgb(0,0,0); stroke-width:4; fill:rgb(203,0,51); " points="712.24594887,685.892119797 730.24594887,717.069034334 766.24594887,717.069034334 784.24594887,685.892119797 766.24594887,654.715205261 730.24594887,654.715205261 "  />
<polygon style="stroke:rgb(0,0,0); stroke-width:4; fill:rgb(203,0,51); " points="766.24594887,717.069034334 784.24594887,748.24594887 820.24594887,748.24594887 838.24594887,717.069034334 820.24594887,685.892119797 784.24594887,685.892119797 "  />
<polygon style="stroke:rgb(0,0,0); stroke-width:4; fill:rgb(203,0,51); " points="766.24594887,779.422863406 784.24594887,810.599777942 820.24594887,810.599777942 838.24594887,779.422863406 820.24594887,748.24594887 784.24594887,748.24594887 "  />
<polygon style="stroke:rgb(0,0,0); stroke-width:4; fill:rgb(203,0,51); " points="712.24594887,810.599777942 730.24594887,841.776692478 766.24594887,841.776692478 784.24594887,810.599777942 766.24594887,779.422863406 730.24594887,779.422863406 "  />
<polygon style="stroke:rgb(0,0,0); stroke-width:4; fill:rgb(203,0,51); " points="658.24594887,779.422863406 676.24594887,810.599777942 712.24594887,810.599777942 730.24594887,779.422863406 712.24594887,748.24594887 676.24594887,748.24594887 "  />
<polygon style="stroke:rgb(0,0,0); stroke-width:4; fill:rgb(203,0,51); " points="658.24594887,717.069034334 676.24594887,748.24594887 712.24594887,748.24594887 730.24594887,717.069034334 712.24594887,685.892119797 676.24594887,685.892119797 "  />
<polygon style="stroke:rgb(0,0,0); stroke-width:4; fill:rgb(205,0,49); " points="712.24594887,623.538290725 730.24594887,654.715205261 766.24594887,654.715205261 784.24594887,623.538290725 766.24594887,592.361376189 730.24594887,592.361376189 "  />
<polygon style="stroke:rgb(0,0,0); stroke-width:4; fill:rgb(205,0,49); " points="820.24594887,685.892119797 838.24594887,717.069034334 874.24594887,717.069034334 892.24594887,685.892119797 874.24594887,654.715205261 838.24594887,654.715205261 "  />
<polygon style="stroke:rgb(0,0,0); stroke-width:4; fill:rgb(205,0,49); " points="820.24594887,810.599777942 838.24594887,841.776692478 874.24594887,841.776692478 892.24594887,810.599777942 874.24594887,779.422863406 838.24594887,779.422863406 "  />
<polygon style="stroke:rgb(0,0,0); stroke-width:4; fill:rgb(205,0,49); " points="712.24594887,872.953607015 730.24594887,904.130521551 766.24594887,904.130521551 784.24594887,872.953607015 766.24594887,841.776692478 730.24594887,841.776692478 "  />
<polygon style="stroke:rgb(0,0,0); stroke-width:4; fill:rgb(205,0,49); " points="604.24594887,810.599777942 622.24594887,841.776692478 658.24594887,841.776692478 676.24594887,810.599777942 658.24594887,779.422863406 622.24594887,779.422863406 "  />
<polygon style="stroke:rgb(0,0,0); stroke-width:4; fill:rgb(205,0,49); " points="604.24594887,685.892119797 622.24594887,717.069034334 658.24594887,717.069034334 676.24594887,685.892119797 658.24594887,654.715205261 622.24594887,654.715205261 "  />
<polygon style="stroke:rgb(0,0,0); stroke-width:4; fill:rgb(80,0,174); " points="712.24594887,561.184461652 730.24594887,592.361376189 766.24594887,592.361376189 784.24594887,561.184461652 766.24594887,530.007547116 730.24594887,530.007547116 "  />
<polygon style="stroke:rgb(0,0,0); stroke-width:4; fill:rgb(80,0,174); " points="874.24594887,654.715205261 892.24594887,685.892119797 928.24594887,685.892119797 946.24594887,654.715205261 928.24594887,623.538290725 892.24594887,623.538290725 "  />
<polygon style="stroke:rgb(0,0,0); stroke-width:4; fill:rgb(80,0,174); " points="874.24594887,841.776692478 892.24594887,872.953607015 928.24594887,872.953607015 946.24594887,841.776692478 928.24594887,810.599777942 892.24594887,810.599777942 "  />
<polygon style="stroke:rgb(0,0,0); stroke-width:4; fill:rgb(80,0,174); " points="712.24594887,935.307436087 730.24594887,966.484350623 766.24594887,966.484350623 784.24594887,935.307436087 766.24594887,904.130521551 730.24594887,904.130521551 "  />
<polygon style="stroke:rgb(0,0,0); stroke-width:4; fill:rgb(80,0,174); " points="550.24594887,841.776692478 568.24594887,872.953607015 604.24594887,872.953607015 622.24594887,841.776692478 604.24594887,810.599777942 568.24594887,810.599777942 "  />
<polygon style="stroke:rgb(0,0,0); stroke-width:4; fill:rgb(80,0,174); " points="550.24594887,654.715205261 568.24594887,685.892119797 604.24594887,685.892119797 622.24594887,654.715205261 604.24594887,623.538290725 568.24594887,623.538290725 "  />
<polygon style="stroke:rgb(0,0,0); stroke-width:4; fill:rgb(209,0,45); " points="712.24594887,498.83063258 730.24594887,530.007547116 766.24594887,530.007547116 784.24594887,498.83063258 766.24594887,467.653718044 730.24594887,467.653718044 "  />
<polygon style="stroke:rgb(0,0,0); stroke-width:4; fill:rgb(209,0,45); " points="928.24594887,623.538290725 946.24594887,654.715205261 982.24594887,654.715205261 1000.24594887,623.538290725 982.24594887,592.361376189 946.24594887,592.361376189 "  />
<polygon style="stroke:rgb(0,0,0); stroke-width:4; fill:rgb(209,0,45); " points="928.24594887,872.953607015 946.24594887,904.130521551 982.24594887,904.130521551 1000.24594887,872.953607015 982.24594887,841.776692478 946.24594887,841.776692478 "  />
<polygon style="stroke:rgb(0,0,0); stroke-width:4; fill:rgb(209,0,45); " points="712.24594887,997.66126516 730.24594887,1028.8381797 766.24594887,1028.8381797 784.24594887,997.66126516 766.24594887,966.484350623 730.24594887,966.484350623 "  />
<polygon style="stroke:rgb(0,0,0); stroke-width:4; fill:rgb(209,0,45); " points="496.24594887,872.953607015 514.24594887,904.130521551 550.24594887,904.130521551 568.24594887,872.953607015 550.24594887,841.776692478 514.24594887,841.776692478 "  />
<polygon style="stroke:rgb(0,0,0); stroke-width:4; fill:rgb(209,0,45); " points="496.24594887,623.538290725 514.24594887,654.715205261 550.24594887,654.715205261 568.24594887,623.538290725 550.24594887,592.361376189 514.24594887,592.361376189 "  />
<polygon style="stroke:rgb(0,0,0); stroke-width:4; fill:rgb(234,0,20); " points="712.24594887,436.476803507 730.24594887,467.653718044 766.24594887,467.653718044 784.24594887,436.476803507 766.24594887,405.299888971 730.24594887,405.299888971 "  />
<polygon style="stroke:rgb(0,0,0); stroke-width:4; fill:rgb(234,0,20); " points="982.24594887,592.361376189 1000.24594887,623.538290725 1036.24594887,623.538290725 1054.24594887,592.361376189 1036.24594887,561.184461652 1000.24594887,561.184461652 "  />
<polygon style="stroke:rgb(0,0,0); stroke-width:4; fill:rgb(234,0,20); " points="982.24594887,904.130521551 1000.24594887,935.307436087 1036.24594887,935.307436087 1054.24594887,904.130521551 1036.24594887,872.953607015 1000.24594887,872.953607015 "  />
<polygon style="stroke:rgb(0,0,0); stroke-width:4; fill:rgb(234,0,20); " points="712.24594887,1060.01509423 730.24594887,1091.19200877 766.24594887,1091.19200877 784.24594887,1060.01509423 766.24594887,1028.8381797 730.24594887,1028.8381797 "  />
<polygon style="stroke:rgb(0,0,0); stroke-width:4; fill:rgb(234,0,20); " points="442.24594887,904.130521551 460.24594887,935.307436087 496.24594887,935.307436087 514.24594887,904.130521551 496.24594887,872.953607015 460.24594887,872.953607015 "  />
<polygon style="stroke:rgb(0,0,0); stroke-width:4; fill:rgb(234,0,20); " points="442.24594887,592.361376189 460.24594887,623.538290725 496.24594887,623.538290725 514.24594887,592.361376189 496.24594887,561.184461652 460.24594887,561.184461652 "  />
<polygon style="stroke:rgb(0,0,0); stroke-width:4; fill:rgb(0,109,145); " points="712.24594887,374.122974435 730.24594887,405.299888971 766.24594887,405.299888971 784.24594887,374.122974435 766.24594887,342.946059899 730.24594887,342.946059899 "  />
<polygon style="stroke:rgb(0,0,0); stroke-width:4; fill:rgb(0,109,145); " points="1036.24594887,561.184461652 1054.24594887,592.361376189 1090.24594887,592.361376189 1108.24594887,561.184461652 1090.24594887,530.007547116 1054.24594887,530.007547116 "  />
<polygon style="stroke:rgb(0,0,0); stroke-width:4; fill:rgb(0,109,145); " points="1036.24594887,935.307436087 1054.24594887,966.484350623 1090.24594887,966.484350623 1108.24594887,935.307436087 1090.24594887,904.130521551 1054.24594887,904.130521551 "  />
<polygon style="stroke:rgb(0,0,0); stroke-width:4; fill:rgb(0,109,145); " points="712.24594887,1122.3689233 730.24594887,1153.54583784 766.24594887,1153.54583784 784.24594887,1122.3689233 766.24594887,1091.19200877 730.24594887,1091.19200877 "  />
<polygon style="stroke:rgb(0,0,0); stroke-width:4; fill:rgb(0,109,145); " points="388.24594887,935.307436087 406.24594887,966.484350623 442.24594887,966.484350623 460.24594887,935.307436087 442.24594887,904.130521551 406.24594887,904.130521551 "  />
<polygon style="stroke:rgb(0,0,0); stroke-width:4; fill:rgb(0,109,145); " points="388.24594887,561.184461652 406.24594887,592.361376189 442.24594887,592.361376189 460.24594887,561.184461652 442.24594887,530.007547116 406.24594887,530.007547116 "  />
<polygon style="stroke:rgb(0,0,0); stroke-width:4; fill:rgb(89,0,165); " points="766.24594887,654.715205261 784.24594887,685.892119797 820.24594887,685.892119797 838.24594887,654.715205261 820.24594887,623.538290725 784.24594887,623.538290725 "  />
<polygon style="stroke:rgb(0,0,0); stroke-width:4; fill:rgb(89,0,165); " points="820.24594887,748.24594887 838.24594887,779.422863406 874.24594887,779.422863406 892.24594887,748.24594887 874.24594887,717.069034334 838.24594887,717.069034334 "  />
<polygon style="stroke:rgb(0,0,0); stroke-width:4; fill:rgb(89,0,165); " points="766.24594887,841.776692478 784.24594887,872.953607015 820.24594887,872.953607015 838.24594887,841.776692478 820.24594887,810.599777942 784.24594887,810.599777942 "  />
<polygon style="stroke:rgb(0,0,0); stroke-width:4; fill:rgb(89,0,165); " points="658.24594887,841.776692478 676.24594887,872.953607015 712.24594887,872.953607015 730.24594887,841.776692478 712.24594887,810.599777942 676.24594887,810.599777942 "  />
<polygon style="stroke:rgb(0,0,0); stroke-width:4; fill:rgb(89,0,165); " points="604.24594887,748.24594887 622.24594887,779.422863406 658.24594887,779.422863406 676.24594887,748.24594887 658.24594887,717.069034334 622.24594887,717.069034334 "  />
<polygon style="stroke:rgb(0,0,0); stroke-width:4; fill:rgb(89,0,165); " points="658.24594887,654.715205261 676.24594887,685.892119797 712.24594887,685.892119797 730.24594887,654.715205261 712.24594887,623.538290725 676.24594887,623.538290725 "  />
<polygon style="stroke:rgb(0,0,0); stroke-width:4; fill:rgb(206,0,48); " points="766.24594887,592.361376189 784.24594887,623.538290725 820.24594887,623.538290725 838.24594887,592.361376189 820.24594887,561.184461652 784.24594887,561.184461652 "  />
<polygon style="stroke:rgb(0,0,0); stroke-width:4; fill:rgb(206,0,48); " points="874.24594887,717.069034334 892.24594887,748.24594887 928.24594887,748.24594887 946.24594887,717.069034334 928.24594887,685.892119797 892.24594887,685.892119797 "  />
<polygon style="stroke:rgb(0,0,0); stroke-width:4; fill:rgb(206,0,48); " points="820.24594887,872.953607015 838.24594887,904.130521551 874.24594887,904.130521551 892.24594887,872.953607015 874.24594887,841.776692478 838.24594887,841.776692478 "  />
<polygon style="stroke:rgb(0,0,0); stroke-width:4; fill:rgb(206,0,48); " points="658.24594887,904.130521551 676.24594887,935.307436087 712.24594887,935.307436087 730.24594887,904.130521551 712.24594887,872.953607015 676.24594887,872.953607015 "  />
<polygon style="stroke:rgb(0,0,0); stroke-width:4; fill:rgb(206,0,48); " points="550.24594887,779.422863406 568.24594887,810.599777942 604.24594887,810.599777942 622.24594887,779.422863406 604.24594887,748.24594887 568.24594887,748.24594887 "  />
<polygon style="stroke:rgb(0,0,0); stroke-width:4; fill:rgb(206,0,48); " points="604.24594887,623.538290725 622.24594887,654.715205261 658.24594887,654.715205261 676.24594887,623.538290725 658.24594887,592.361376189 622.24594887,592.361376189 "  />
<polygon style="stroke:rgb(0,0,0); stroke-width:4; fill:rgb(206,0,48); " points="820.24594887,623.538290725 838.24594887,654.715205261 874.24594887,654.715205261 892.24594887,623.538290725 874.24594887,592.361376189 838.24594887,592.361376189 "  />
<polygon style="stroke:rgb(0,0,0); stroke-width:4; fill:rgb(206,0,48); " points="874.24594887,779.422863406 892.24594887,810.599777942 928.24594887,810.599777942 946.24594887,779.422863406 928.24594887,748.24594887 892.24594887,748.24594887 "  />
<polygon style="stroke:rgb(0,0,0); stroke-width:4; fill:rgb(206,0,48); " points="766.24594887,904.130521551 784.24594887,935.307436087 820.24594887,935.307436087 838.24594887,904.130521551 820.24594887,872.953607015 784.24594887,872.953607015 "  />
<polygon style="stroke:rgb(0,0,0); stroke-width:4; fill:rgb(206,0,48); " points="604.24594887,872.953607015 622.24594887,904.130521551 658.24594887,904.130521551 676.24594887,872.953607015 658.24594887,841.776692478 622.24594887,841.776692478 "  />
<polygon style="stroke:rgb(0,0,0); stroke-width:4; fill:rgb(206,0,48); " points="550.24594887,717.069034334 568.24594887,748.24594887 604.24594887,748.24594887 622.24594887,717.069034334 604.24594887,685.892119797 568.24594887,685.892119797 "  />
<polygon style="stroke:rgb(0,0,0); stroke-width:4; fill:rgb(206,0,48); " points="658.24594887,592.361376189 676.24594887,623.538290725 712.24594887,623.538290725 730.24594887,592.361376189 712.24594887,561.184461652 676.24594887,561.184461652 "  />
<polygon style="stroke:rgb(0,0,0); stroke-width:4; fill:rgb(212,0,42); " points="766.24594887,530.007547116 784.24594887,561.184461652 820.24594887,561.184461652 838.24594887,530.007547116 820.24594887,498.83063258 784.24594887,498.83063258 "  />
<polygon style="stroke:rgb(0,0,0); stroke-width:4; fill:rgb(212,0,42); " points="928.24594887,685.892119797 946.24594887,717.069034334 982.24594887,717.069034334 1000.24594887,685.892119797 982.24594887,654.715205261 946.24594887,654.715205261 "  />
<polygon style="stroke:rgb(0,0,0); stroke-width:4; fill:rgb(212,0,42); " points="874.24594887,904.130521551 892.24594887,935.307436087 928.24594887,935.307436087 946.24594887,904.130521551 928.24594887,872.953607015 892.24594887,872.953607015 "  />
<polygon style="stroke:rgb(0,0,0); stroke-width:4; fill:rgb(212,0,42); " points="658.24594887,966.484350623 676.24594887,997.66126516 712.24594887,997.66126516 730.24594887,966.484350623 712.24594887,935.307436087 676.24594887,935.307436087 "  />
<polygon style="stroke:rgb(0,0,0); stroke-width:4; fill:rgb(212,0,42); " points="496.24594887,810.599777942 514.24594887,841.776692478 550.24594887,841.776692478 568.24594887,810.599777942 550.24594887,779.422863406 514.24594887,779.422863406 "  />
<polygon style="stroke:rgb(0,0,0); stroke-width:4; fill:rgb(212,0,42); " points="550.24594887,592.361376189 568.24594887,623.538290725 604.24594887,623.538290725 622.24594887,592.361376189 604.24594887,561.184461652 568.24594887,561.184461652 "  />
<polygon style="stroke:rgb(0,0,0); stroke-width:4; fill:rgb(212,0,42); " points="874.24594887,592.361376189 892.24594887,623.538290725 928.24594887,623.538290725 946.24594887,592.361376189 928.24594887,561.184461652 892.24594887,561.184461652 "  />
<polygon style="stroke:rgb(0,0,0); stroke-width:4; fill:rgb(212,0,42); " points="928.24594887,810.599777942 946.24594887,841.776692478 982.24594887,841.776692478 1000.24594887,810.599777942 982.24594887,779.422863406 946.24594887,779.422863406 "  />
<polygon style="stroke:rgb(0,0,0); stroke-width:4; fill:rgb(212,0,42); " points="766.24594887,966.484350623 784.24594887,997.66126516 820.24594887,997.66126516 838.24594887,966.484350623 820.24594887,935.307436087 784.24594887,935.307436087 "  />
<polygon style="stroke:rgb(0,0,0); stroke-width:4; fill:rgb(212,0,42); " points="550.24594887,904.130521551 568.24594887,935.307436087 604.24594887,935.307436087 622.24594887,904.130521551 604.24594887,872.953607015 568.24594887,872.953607015 "  />
<polygon style="stroke:rgb(0,0,0); stroke-width:4; fill:rgb(212,0,42); " points="496.24594887,685.892119797 514.24594887,717.069034334 550.24594887,717.069034334 568.24594887,685.892119797 550.24594887,654.715205261 514.24594887,654.715205261 "  />
<polygon style="stroke:rgb(0,0,0); stroke-width:4; fill:rgb(212,0,42); " points="658.24594887,530.007547116 676.24594887,561.184461652 712.24594887,561.184461652 730.24594887,530.007547116 712.24594887,498.83063258 676.24594887,498.83063258 "  />
<polygon style="stroke:rgb(0,0,0); stroke-width:4; fill:rgb(75,0,179); " points="820.24594887,561.184461652 838.24594887,592.361376189 874.24594887,592.361376189 892.24594887,561.184461652 874.24594887,530.007547116 838.24594887,530.007547116 "  />
<polygon style="stroke:rgb(0,0,0); stroke-width:4; fill:rgb(75,0,179); " points="928.24594887,748.24594887 946.24594887,779.422863406 982.24594887,779.422863406 1000.24594887,748.24594887 982.24594887,717.069034334 946.24594887,717.069034334 "  />
<polygon style="stroke:rgb(0,0,0); stroke-width:4; fill:rgb(75,0,179); " points="820.24594887,935.307436087 838.24594887,966.484350623 874.24594887,966.484350623 892.24594887,935.307436087 874.24594887,904.130521551 838.24594887,904.130521551 "  />
<polygon style="stroke:rgb(0,0,0); stroke-width:4; fill:rgb(75,0,179); " points="604.24594887,935.307436087 622.24594887,966.484350623 658.24594887,966.484350623 676.24594887,935.307436087 658.24594887,904.130521551 622.24594887,904.130521551 "  />
<polygon style="stroke:rgb(0,0,0); stroke-width:4; fill:rgb(75,0,179); " points="496.24594887,748.24594887 514.24594887,779.422863406 550.24594887,779.422863406 568.24594887,748.24594887 550.24594887,717.069034334 514.24594887,717.069034334 "  />
<polygon style="stroke:rgb(0,0,0); stroke-width:4; fill:rgb(75,0,179); " points="604.24594887,561.184461652 622.24594887,592.361376189 658.24594887,592.361376189 676.24594887,561.184461652 658.24594887,530.007547116 622.24594887,530.007547116 "  />
<polygon style="stroke:rgb(0,0,0); stroke-width:4; fill:rgb(50,0,204); " points="766.24594887,467.653718044 784.24594887,498.83063258 820.24594887,498.83063258 838.24594887,467.653718044 820.24594887,436.476803507 784.24594887,436.476803507 "  />
<polygon style="stroke:rgb(0,0,0); stroke-width:4; fill:rgb(50,0,204); " points="982.24594887,654.715205261 1000.24594887,685.892119797 1036.24594887,685.892119797 1054.24594887,654.715205261 1036.24594887,623.538290725 1000.24594887,623.538290725 "  />
<polygon style="stroke:rgb(0,0,0); stroke-width:4; fill:rgb(50,0,204); " points="928.24594887,935.307436087 946.24594887,966.484350623 982.24594887,966.484350623 1000.24594887,935.307436087 982.24594887,904.130521551 946.24594887,904.130521551 "  />
<polygon style="stroke:rgb(0,0,0); stroke-width:4; fill:rgb(50,0,204); " points="658.24594887,1028.8381797 676.24594887,1060.01509423 712.24594887,1060.01509423 730.24594887,1028.8381797 712.24594887,997.66126516 676.24594887,997.66126516 "  />
<polygon style="stroke:rgb(0,0,0); stroke-width:4; fill:rgb(50,0,204); " points="442.24594887,841.776692478 460.24594887,872.953607015 496.24594887,872.953607015 514.24594887,841.776692478 496.24594887,810.599777942 460.24594887,810.599777942 "  />
<polygon style="stroke:rgb(0,0,0); stroke-width:4; fill:rgb(50,0,204); " points="496.24594887,561.184461652 514.24594887,592.361376189 550.24594887,592.361376189 568.24594887,561.184461652 550.24594887,530.007547116 514.24594887,530.007547116 "  />
<polygon style="stroke:rgb(0,0,0); stroke-width:4; fill:rgb(50,0,204); " points="928.24594887,561.184461652 946.24594887,592.361376189 982.24594887,592.361376189 1000.24594887,561.184461652 982.24594887,530.007547116 946.24594887,530.007547116 "  />
<polygon style="stroke:rgb(0,0,0); stroke-width:4; fill:rgb(50,0,204); " points="982.24594887,841.776692478 1000.24594887,872.953607015 1036.24594887,872.953607015 1054.24594887,841.776692478 1036.24594887,810.599777942 1000.24594887,810.599777942 "  />
<polygon style="stroke:rgb(0,0,0); stroke-width:4; fill:rgb(50,0,204); " points="766.24594887,1028.8381797 784.24594887,1060.01509423 820.24594887,1060.01509423 838.24594887,1028.8381797 820.24594887,997.66126516 784.24594887,997.66126516 "  />
<polygon style="stroke:rgb(0,0,0); stroke-width:4; fill:rgb(50,0,204); " points="496.24594887,935.307436087 514.24594887,966.484350623 550.24594887,966.484350623 568.24594887,935.307436087 550.24594887,904.130521551 514.24594887,904.130521551 "  />
<polygon style="stroke:rgb(0,0,0); stroke-width:4; fill:rgb(50,0,204); " points="442.24594887,654.715205261 460.24594887,685.892119797 496.24594887,685.892119797 514.24594887,654.715205261 496.24594887,623.538290725 460.24594887,623.538290725 "  />
<polygon style="stroke:rgb(0,0,0); stroke-width:4; fill:rgb(50,0,204); " points="658.24594887,467.653718044 676.24594887,498.83063258 712.24594887,498.83063258 730.24594887,467.653718044 712.24594887,436.476803507 676.24594887,436.476803507 "  />
<polygon style="stroke:rgb(0,0,0); stroke-width:4; fill:rgb(214,0,40); " points="820.24594887,498.83063258 838.24594887,530.007547116 874.24594887,530.007547116 892.24594887,498.83063258 874.24594887,467.653718044 838.24594887,467.653718044 "  />
<polygon style="stroke:rgb(0,0,0); stroke-width:4; fill:rgb(214,0,40); " points="982.24594887,717.069034334 1000.24594887,748.24594887 1036.24594887,748.24594887 1054.24594887,717.069034334 1036.24594887,685.892119797 1000.24594887,685.892119797 "  />
<polygon style="stroke:rgb(0,0,0); stroke-width:4; fill:rgb(214,0,40); " points="874.24594887,966.484350623 892.24594887,997.66126516 928.24594887,997.66126516 946.24594887,966.484350623 928.24594887,935.307436087 892.24594887,935.307436087 "  />
<polygon style="stroke:rgb(0,0,0); stroke-width:4; fill:rgb(214,0,40); " points="604.24594887,997.66126516 622.24594887,1028.8381797 658.24594887,1028.8381797 676.24594887,997.66126516 658.24594887,966.484350623 622.24594887,966.484350623 "  />
<polygon style="stroke:rgb(0,0,0); stroke-width:4; fill:rgb(214,0,40); " points="442.24594887,779.422863406 460.24594887,810.599777942 496.24594887,810.599777942 514.24594887,779.422863406 496.24594887,748.24594887 460.24594887,748.24594887 "  />
<polygon style="stroke:rgb(0,0,0); stroke-width:4; fill:rgb(214,0,40); " points="550.24594887,530.007547116 568.24594887,561.184461652 604.24594887,561.184461652 622.24594887,530.007547116 604.24594887,498.83063258 568.24594887,498.83063258 "  />
<polygon style="stroke:rgb(0,0,0); stroke-width:4; fill:rgb(214,0,40); " points="874.24594887,530.007547116 892.24594887,561.184461652 928.24594887,561.184461652 946.24594887,530.007547116 928.24594887,498.83063258 892.24594887,498.83063258 "  />
<polygon style="stroke:rgb(0,0,0); stroke-width:4; fill:rgb(214,0,40); " points="982.24594887,779.422863406 1000.24594887,810.599777942 1036.24594887,810.599777942 1054.24594887,779.422863406 1036.24594887,748.24594887 1000.24594887,748.24594887 "  />
<polygon style="stroke:rgb(0,0,0); stroke-width:4; fill:rgb(214,0,40); " points="820.24594887,997.66126516 838.24594887,1028.8381797 874.24594887,1028.8381797 892.24594887,997.66126516 874.24594887,966.484350623 838.24594887,966.484350623 "  />
<polygon style="stroke:rgb(0,0,0); stroke-width:4; fill:rgb(214,0,40); " points="550.24594887,966.484350623 568.24594887,997.66126516 604.24594887,997.66126516 622.24594887,966.484350623 604.24594887,935.307436087 568.24594887,935.307436087 "  />
<polygon style="stroke:rgb(0,0,0); stroke-width:4; fill:rgb(214,0,40); " points="442.24594887,717.069034334 460.24594887,748.24594887 496.24594887,748.24594887 514.24594887,717.069034334 496.24594887,685.892119797 460.24594887,685.892119797 "  />
<polygon style="stroke:rgb(0,0,0); stroke-width:4; fill:rgb(214,0,40); " points="604.24594887,498.83063258 622.24594887,530.007547116 658.24594887,530.007547116 676.24594887,498.83063258 658.24594887,467.653718044 622.24594887,467.653718044 "  />
<polygon style="stroke:rgb(0,0,0); stroke-width:4; fill:rgb(224,0,30); " points="766.24594887,405.299888971 784.24594887,436.476803507 820.24594887,436.476803507 838.24594887,405.299888971 820.24594887,374.122974435 784.24594887,374.122974435 "  />
<polygon style="stroke:rgb(0,0,0); stroke-width:4; fill:rgb(224,0,30); " points="1036.24594887,623.538290725 1054.24594887,654.715205261 1090.24594887,654.715205261 1108.24594887,623.538290725 1090.24594887,592.361376189 1054.24594887,592.361376189 "  />
<polygon style="stroke:rgb(0,0,0); stroke-width:4; fill:rgb(224,0,30); " points="982.24594887,966.484350623 1000.24594887,997.66126516 1036.24594887,997.66126516 1054.24594887,966.484350623 1036.24594887,935.307436087 1000.24594887,935.307436087 "  />
<polygon style="stroke:rgb(0,0,0); stroke-width:4; fill:rgb(224,0,30); " points="658.24594887,1091.19200877 676.24594887,1122.3689233 712.24594887,1122.3689233 730.24594887,1091.19200877 712.24594887,1060.01509423 676.24594887,1060.01509423 "  />
<polygon style="stroke:rgb(0,0,0); stroke-width:4; fill:rgb(224,0,30); " points="388.24594887,872.953607015 406.24594887,904.130521551 442.24594887,904.130521551 460.24594887,872.953607015 442.24594887,841.776692478 406.24594887,841.776692478 "  />
<polygon style="stroke:rgb(0,0,0); stroke-width:4; fill:rgb(224,0,30); " points="442.24594887,530.007547116 460.24594887,561.184461652 496.24594887,561.184461652 514.24594887,530.007547116 496.24594887,498.83063258 460.24594887,498.83063258 "  />
<polygon style="stroke:rgb(0,0,0); stroke-width:4; fill:rgb(224,0,30); " points="982.24594887,530.007547116 1000.24594887,561.184461652 1036.24594887,561.184461652 1054.24594887,530.007547116 1036.24594887,498.83063258 1000.24594887,498.83063258 "  />
<polygon style="stroke:rgb(0,0,0); stroke-width:4; fill:rgb(224,0,30); " points="1036.24594887,872.953607015 1054.24594887,904.130521551 1090.24594887,904.130521551 1108.24594887,872.953607015 1090.24594887,841.776692478 1054.24594887,841.776692478 "  />
<polygon style="stroke:rgb(0,0,0); stroke-width:4; fill:rgb(224,0,30); " points="766.24594887,1091.19200877 784.24594887,1122.3689233 820.24594887,1122.3689233 838.24594887,1091.19200877 820.24594887,1060.01509423 784.24594887,1060.01509423 "  />
<polygon style="stroke:rgb(0,0,0); stroke-width:4; fill:rgb(224,0,30); " points="442.24594887,966.484350623 460.24594887,997.66126516 496.24594887,997.66126516 514.24594887,966.484350623 496.24594887,935.307436087 460.24594887,935.307436087 "  />
<polygon style="stroke:rgb(0,0,0); stroke-width:4; fill:rgb(224,0,30); " points="388.24594887,623.538290725 406.24594887,654.715205261 442.24594887,654.715205261 460.24594887,623.538290725 442.24594887,592.361376189 406.24594887,592.361376189 "  />
<polygon style="stroke:rgb(0,0,0); stroke-width:4; fill:rgb(224,0,30); " points="658.24594887,405.299888971 676.24594887,436.476803507 712.24594887,436.476803507 730.24594887,405.299888971 712.24594887,374.122974435 676.24594887,374.122974435 "  />
<polygon style="stroke:rgb(0,0,0); stroke-width:4; fill:rgb(234,0,20); " points="820.24594887,436.476803507 838.24594887,467.653718044 874.24594887,467.653718044 892.24594887,436.476803507 874.24594887,405.299888971 838.24594887,405.299888971 "  />
<polygon style="stroke:rgb(0,0,0); stroke-width:4; fill:rgb(234,0,20); " points="1036.24594887,685.892119797 1054.24594887,717.069034334 1090.24594887,717.069034334 1108.24594887,685.892119797 1090.24594887,654.715205261 1054.24594887,654.715205261 "  />
<polygon style="stroke:rgb(0,0,0); stroke-width:4; fill:rgb(234,0,20); " points="928.24594887,997.66126516 946.24594887,1028.8381797 982.24594887,1028.8381797 1000.24594887,997.66126516 982.24594887,966.484350623 946.24594887,966.484350623 "  />
<polygon style="stroke:rgb(0,0,0); stroke-width:4; fill:rgb(234,0,20); " points="604.24594887,1060.01509423 622.24594887,1091.19200877 658.24594887,1091.19200877 676.24594887,1060.01509423 658.24594887,1028.8381797 622.24594887,1028.8381797 "  />
<polygon style="stroke:rgb(0,0,0); stroke-width:4; fill:rgb(234,0,20); " points="388.24594887,810.599777942 406.24594887,841.776692478 442.24594887,841.776692478 460.24594887,810.599777942 442.24594887,779.422863406 406.24594887,779.422863406 "  />
<polygon style="stroke:rgb(0,0,0); stroke-width:4; fill:rgb(234,0,20); " points="496.24594887,498.83063258 514.24594887,530.007547116 550.24594887,530.007547116 568.24594887,498.83063258 550.24594887,467.653718044 514.24594887,467.653718044 "  />
<polygon style="stroke:rgb(0,0,0); stroke-width:4; fill:rgb(234,0,20); " points="928.24594887,498.83063258 946.24594887,530.007547116 982.24594887,530.007547116 1000.24594887,498.83063258 982.24594887,467.653718044 946.24594887,467.653718044 "  />
<polygon style="stroke:rgb(0,0,0); stroke-width:4; fill:rgb(234,0,20); " points="1036.24594887,810.599777942 1054.24594887,841.776692478 1090.24594887,841.776692478 1108.24594887,810.599777942 1090.24594887,779.422863406 1054.24594887,779.422863406 "  />
<polygon style="stroke:rgb(0,0,0); stroke-width:4; fill:rgb(234,0,20); " points="820.24594887,1060.01509423 838.24594887,1091.19200877 874.24594887,1091.19200877 892.24594887,1060.01509423 874.24594887,1028.8381797 838.24594887,1028.8381797 "  />
<polygon style="stroke:rgb(0,0,0); stroke-width:4; fill:rgb(234,0,20); " points="496.24594887,997.66126516 514.24594887,1028.8381797 550.24594887,1028.8381797 568.24594887,997.66126516 550.24594887,966.484350623 514.24594887,966.484350623 "  />
<polygon style="stroke:rgb(0,0,0); stroke-width:4; fill:rgb(234,0,20); " points="388.24594887,685.892119797 406.24594887,717.069034334 442.24594887,717.069034334 460.24594887,685.892119797 442.24594887,654.715205261 406.24594887,654.715205261 "  />
<polygon style="stroke:rgb(0,0,0); stroke-width:4; fill:rgb(234,0,20); " points="604.24594887,436.476803507 622.24594887,467.653718044 658.24594887,467.653718044 676.24594887,436.476803507 658.24594887,405.299888971 622.24594887,405.299888971 "  />
<polygon style="stroke:rgb(0,0,0); stroke-width:4; fill:rgb(35,0,219); " points="874.24594887,467.653718044 892.24594887,498.83063258 928.24594887,498.83063258 946.24594887,467.653718044 928.24594887,436.476803507 892.24594887,436.476803507 "  />
<polygon style="stroke:rgb(0,0,0); stroke-width:4; fill:rgb(35,0,219); " points="1036.24594887,748.24594887 1054.24594887,779.422863406 1090.24594887,779.422863406 1108.24594887,748.24594887 1090.24594887,717.069034334 1054.24594887,717.069034334 "  />
<polygon style="stroke:rgb(0,0,0); stroke-width:4; fill:rgb(35,0,219); " points="874.24594887,1028.8381797 892.24594887,1060.01509423 928.24594887,1060.01509423 946.24594887,1028.8381797 928.24594887,997.66126516 892.24594887,997.66126516 "  />
<polygon style="stroke:rgb(0,0,0); stroke-width:4; fill:rgb(35,0,219); " points="550.24594887,1028.8381797 568.24594887,1060.01509423 604.24594887,1060.01509423 622.24594887,1028.8381797 604.24594887,997.66126516 568.24594887,997.66126516 "  />
<polygon style="stroke:rgb(0,0,0); stroke-width:4; fill:rgb(35,0,219); " points="388.24594887,748.24594887 406.24594887,779.422863406 442.24594887,779.422863406 460.24594887,748.24594887 442.24594887,717.069034334 406.24594887,717.069034334 "  />
<polygon style="stroke:rgb(0,0,0); stroke-width:4; fill:rgb(35,0,219); " points="550.24594887,467.653718044 568.24594887,498.83063258 604.24594887,498.83063258 622.24594887,467.653718044 604.24594887,436.476803507 568.24594887,436.476803507 "  />
<polygon style="stroke:rgb(0,0,0); stroke-width:4; fill:rgb(0,116,138); " points="820.24594887,374.122974435 838.24594887,405.299888971 874.24594887,405.299888971 892.24594887,374.122974435 874.24594887,342.946059899 838.24594887,342.946059899 "  />
<polygon style="stroke:rgb(0,0,0); stroke-width:4; fill:rgb(0,116,138); " points="1090.24594887,654.715205261 1108.24594887,685.892119797 1144.24594887,685.892119797 1162.24594887,654.715205261 1144.24594887,623.538290725 1108.24594887,623.538290725 "  />
<polygon style="stroke:rgb(0,0,0); stroke-width:4; fill:rgb(0,116,138); " points="982.24594887,1028.8381797 1000.24594887,1060.01509423 1036.24594887,1060.01509423 1054.24594887,1028.8381797 1036.24594887,997.66126516 1000.24594887,997.66126516 "  />
<polygon style="stroke:rgb(0,0,0); stroke-width:4; fill:rgb(0,116,138); " points="604.24594887,1122.3689233 622.24594887,1153.54583784 658.24594887,1153.54583784 676.24594887,1122.3689233 658.24594887,1091.19200877 622.24594887,1091.19200877 "  />
<polygon style="stroke:rgb(0,0,0); stroke-width:4; fill:rgb(0,116,138); " points="334.24594887,841.776692478 352.24594887,872.953607015 388.24594887,872.953607015 406.24594887,841.776692478 388.24594887,810.599777942 352.24594887,810.599777942 "  />
<polygon style="stroke:rgb(0,0,0); stroke-width:4; fill:rgb(0,116,138); " points="442.24594887,467.653718044 460.24594887,498.83063258 496.24594887,498.83063258 514.24594887,467.653718044 496.24594887,436.476803507 460.24594887,436.476803507 "  />
<polygon style="stroke:rgb(0,0,0); stroke-width:4; fill:rgb(0,116,138); " points="982.24594887,467.653718044 1000.24594887,498.83063258 1036.24594887,498.83063258 1054.24594887,467.653718044 1036.24594887,436.476803507 1000.24594887,436.476803507 "  />
<polygon style="stroke:rgb(0,0,0); stroke-width:4; fill:rgb(0,116,138); " points="1090.24594887,841.776692478 1108.24594887,872.953607015 1144.24594887,872.953607015 1162.24594887,841.776692478 1144.24594887,810.599777942 1108.24594887,810.599777942 "  />
<polygon style="stroke:rgb(0,0,0); stroke-width:4; fill:rgb(0,116,138); " points="820.24594887,1122.3689233 838.24594887,1153.54583784 874.24594887,1153.54583784 892.24594887,1122.3689233 874.24594887,1091.19200877 838.24594887,1091.19200877 "  />
<polygon style="stroke:rgb(0,0,0); stroke-width:4; fill:rgb(0,116,138); " points="442.24594887,1028.8381797 460.24594887,1060.01509423 496.24594887,1060.01509423 514.24594887,1028.8381797 496.24594887,997.66126516 460.24594887,997.66126516 "  />
<polygon style="stroke:rgb(0,0,0); stroke-width:4; fill:rgb(0,116,138); " points="334.24594887,654.715205261 352.24594887,685.892119797 388.24594887,685.892119797 406.24594887,654.715205261 388.24594887,623.538290725 352.24594887,623.538290725 "  />
<polygon style="stroke:rgb(0,0,0); stroke-width:4; fill:rgb(0,116,138); " points="604.24594887,374.122974435 622.24594887,405.299888971 658.24594887,405.299888971 676.24594887,374.122974435 658.24594887,342.946059899 622.24594887,342.946059899 "  />
<polygon style="stroke:rgb(0,0,0); stroke-width:4; fill:rgb(237,0,17); " points="874.24594887,405.299888971 892.24594887,436.476803507 928.24594887,436.476803507 946.24594887,405.299888971 928.24594887,374.122974435 892.24594887,374.122974435 "  />
<polygon style="stroke:rgb(0,0,0); stroke-width:4; fill:rgb(237,0,17); " points="1090.24594887,717.069034334 1108.24594887,748.24594887 1144.24594887,748.24594887 1162.24594887,717.069034334 1144.24594887,685.892119797 1108.24594887,685.892119797 "  />
<polygon style="stroke:rgb(0,0,0); stroke-width:4; fill:rgb(237,0,17); " points="928.24594887,1060.01509423 946.24594887,1091.19200877 982.24594887,1091.19200877 1000.24594887,1060.01509423 982.24594887,1028.8381797 946.24594887,1028.8381797 "  />
<polygon style="stroke:rgb(0,0,0); stroke-width:4; fill:rgb(237,0,17); " points="550.24594887,1091.19200877 568.24594887,1122.3689233 604.24594887,1122.3689233 622.24594887,1091.19200877 604.24594887,1060.01509423 568.24594887,1060.01509423 "  />
<polygon style="stroke:rgb(0,0,0); stroke-width:4; fill:rgb(237,0,17); " points="334.24594887,779.422863406 352.24594887,810.599777942 388.24594887,810.599777942 406.24594887,779.422863406 388.24594887,748.24594887 352.24594887,748.24594887 "  />
<polygon style="stroke:rgb(0,0,0); stroke-width:4; fill:rgb(237,0,17); " points="496.24594887,436.476803507 514.24594887,467.653718044 550.24594887,467.653718044 568.24594887,436.476803507 550.24594887,405.299888971 514.24594887,405.299888971 "  />
<polygon style="stroke:rgb(0,0,0); stroke-width:4; fill:rgb(237,0,17); " points="928.24594887,436.476803507 946.24594887,467.653718044 982.24594887,467.653718044 1000.24594887,436.476803507 982.24594887,405.299888971 946.24594887,405.299888971 "  />
<polygon style="stroke:rgb(0,0,0); stroke-width:4; fill:rgb(237,0,17); " points="1090.24594887,779.422863406 1108.24594887,810.599777942 1144.24594887,810.599777942 1162.24594887,779.422863406 1144.24594887,748.24594887 1108.24594887,748.24594887 "  />
<polygon style="stroke:rgb(0,0,0); stroke-width:4; fill:rgb(237,0,17); " points="874.24594887,1091.19200877 892.24594887,1122.3689233 928.24594887,1122.3689233 946.24594887,1091.19200877 928.24594887,1060.01509423 892.24594887,1060.01509423 "  />
<polygon style="stroke:rgb(0,0,0); stroke-width:4; fill:rgb(237,0,17); " points="496.24594887,1060.01509423 514.24594887,1091.19200877 550.24594887,1091.19200877 568.24594887,1060.01509423 550.24594887,1028.8381797 514.24594887,1028.8381797 "  />
<polygon style="stroke:rgb(0,0,0); stroke-width:4; fill:rgb(237,0,17); " points="334.24594887,717.069034334 352.24594887,748.24594887 388.24594887,748.24594887 406.24594887,717.069034334 388.24594887,685.892119797 352.24594887,685.892119797 "  />
<polygon style="stroke:rgb(0,0,0); stroke-width:4; fill:rgb(237,0,17); " points="550.24594887,405.299888971 568.24594887,436.476803507 604.24594887,436.476803507 622.24594887,405.299888971 604.24594887,374.122974435 568.24594887,374.122974435 "  />
<polygon style="stroke:rgb(0,0,0); stroke-width:4; fill:rgb(0,159,95); " points="928.24594887,374.122974435 946.24594887,405.299888971 982.24594887,405.299888971 1000.24594887,374.122974435 982.24594887,342.946059899 946.24594887,342.946059899 "  />
<polygon style="stroke:rgb(0,0,0); stroke-width:4; fill:rgb(0,159,95); " points="1144.24594887,748.24594887 1162.24594887,779.422863406 1198.24594887,779.422863406 1216.24594887,748.24594887 1198.24594887,717.069034334 1162.24594887,717.069034334 "  />
<polygon style="stroke:rgb(0,0,0); stroke-width:4; fill:rgb(0,159,95); " points="928.24594887,1122.3689233 946.24594887,1153.54583784 982.24594887,1153.54583784 1000.24594887,1122.3689233 982.24594887,1091.19200877 946.24594887,1091.19200877 "  />
<polygon style="stroke:rgb(0,0,0); stroke-width:4; fill:rgb(0,159,95); " points="496.24594887,1122.3689233 514.24594887,1153.54583784 550.24594887,1153.54583784 568.24594887,1122.3689233 550.24594887,1091.19200877 514.24594887,1091.19200877 "  />
<polygon style="stroke:rgb(0,0,0); stroke-width:4; fill:rgb(0,159,95); " points="280.24594887,748.24594887 298.24594887,779.422863406 334.24594887,779.422863406 352.24594887,748.24594887 334.24594887,717.069034334 298.24594887,717.069034334 "  />
<polygon style="stroke:rgb(0,0,0); stroke-width:4; fill:rgb(0,159,95); " points="496.24594887,374.122974435 514.24594887,405.299888971 550.24594887,405.299888971 568.24594887,374.122974435 550.24594887,342.946059899 514.24594887,342.946059899 "  />
</svg>
