<?xml version="1.0" encoding="ISO-8859-1" standalone="no"?><svg xmlns="http://www.w3.org/2000/svg" version="1.1" xmlns:xlink="http://www.w3.org/1999/xlink"  >
<polygon style="stroke:rgb(0,0,0); stroke-width:4; fill:rgb(261,0,-6); " points="57.5307436087,93.5307436087 75.5307436087,124.707658145 111.530743609,124.707658145 129.530743609,93.5307436087 111.530743609,62.3538290725 75.5307436087,62.3538290725 "  />
<polygon style="stroke:rgb(0,0,0); stroke-width:4; fill:rgb(62,0,192); " points="57.5307436087,31.1769145362 75.5307436087,62.3538290725 111.530743609,62.3538290725 129.530743609,31.1769145362 111.530743609,1.06581410364e-14 75.5307436087,1.06581410364e-14 "  />
<polygon style="stroke:rgb(0,0,0); stroke-width:4; fill:rgb(62,0,192); " points="111.530743609,62.3538290725 129.530743609,93.5307436087 165.530743609,93.5307436087 183.530743609,62.3538290725 165.530743609,31.1769145362 129.530743609,31.1769145362 "  />
<polygon style="stroke:rgb(0,0,0); stroke-width:4; fill:rgb(62,0,192); " points="111.530743609,124.707658145 129.530743609,155.884572681 165.530743609,155.884572681 183.530743609,124.707658145 165.530743609,93.5307436087 129.530743609,93.5307436087 "  />
<polygon style="stroke:rgb(0,0,0); stroke-width:4; fill:rgb(62,0,192); " points="57.5307436087,155.884572681 75.5307436087,187.061487217 111.530743609,187.061487217 129.530743609,155.884572681 111.530743609,124.707658145 75.5307436087,124.707658145 "  />
<polygon style="stroke:rgb(0,0,0); stroke-width:4; fill:rgb(62,0,192); " points="3.53074360872,124.707658145 21.5307436087,155.884572681 57.5307436087,155.884572681 75.5307436087,124.707658145 57.5307436087,93.5307436087 21.5307436087,93.5307436087 "  />
<polygon style="stroke:rgb(0,0,0); stroke-width:4; fill:rgb(62,0,192); " points="3.53074360872,62.3538290725 21.5307436087,93.5307436087 57.5307436087,93.5307436087 75.5307436087,62.3538290725 57.5307436087,31.1769145362 21.5307436087,31.1769145362 "  />
</svg>
