<?xml version="1.0" encoding="ISO-8859-1" standalone="no"?><svg xmlns="http://www.w3.org/2000/svg" version="1.1" xmlns:xlink="http://www.w3.org/1999/xlink"  >
<polygon style="stroke:rgb(0,0,0); stroke-width:4; fill:rgb(69,0,185); " points="151.061487217,187.061487217 169.061487217,218.238401754 205.061487217,218.238401754 223.061487217,187.061487217 205.061487217,155.884572681 169.061487217,155.884572681 "  />
<polygon style="stroke:rgb(0,0,0); stroke-width:4; fill:rgb(207,0,47); " points="151.061487217,124.707658145 169.061487217,155.884572681 205.061487217,155.884572681 223.061487217,124.707658145 205.061487217,93.5307436087 169.061487217,93.5307436087 "  />
<polygon style="stroke:rgb(0,0,0); stroke-width:4; fill:rgb(207,0,47); " points="205.061487217,155.884572681 223.061487217,187.061487217 259.061487217,187.061487217 277.061487217,155.884572681 259.061487217,124.707658145 223.061487217,124.707658145 "  />
<polygon style="stroke:rgb(0,0,0); stroke-width:4; fill:rgb(207,0,47); " points="205.061487217,218.238401754 223.061487217,249.41531629 259.061487217,249.41531629 277.061487217,218.238401754 259.061487217,187.061487217 223.061487217,187.061487217 "  />
<polygon style="stroke:rgb(0,0,0); stroke-width:4; fill:rgb(207,0,47); " points="151.061487217,249.41531629 169.061487217,280.592230826 205.061487217,280.592230826 223.061487217,249.41531629 205.061487217,218.238401754 169.061487217,218.238401754 "  />
<polygon style="stroke:rgb(0,0,0); stroke-width:4; fill:rgb(207,0,47); " points="97.0614872174,218.238401754 115.061487217,249.41531629 151.061487217,249.41531629 169.061487217,218.238401754 151.061487217,187.061487217 115.061487217,187.061487217 "  />
<polygon style="stroke:rgb(0,0,0); stroke-width:4; fill:rgb(207,0,47); " points="97.0614872174,155.884572681 115.061487217,187.061487217 151.061487217,187.061487217 169.061487217,155.884572681 151.061487217,124.707658145 115.061487217,124.707658145 "  />
<polygon style="stroke:rgb(0,0,0); stroke-width:4; fill:rgb(173,0,81); " points="151.061487217,62.3538290725 169.061487217,93.5307436087 205.061487217,93.5307436087 223.061487217,62.3538290725 205.061487217,31.1769145362 169.061487217,31.1769145362 "  />
<polygon style="stroke:rgb(0,0,0); stroke-width:4; fill:rgb(173,0,81); " points="259.061487217,124.707658145 277.061487217,155.884572681 313.061487217,155.884572681 331.061487217,124.707658145 313.061487217,93.5307436087 277.061487217,93.5307436087 "  />
<polygon style="stroke:rgb(0,0,0); stroke-width:4; fill:rgb(173,0,81); " points="259.061487217,249.41531629 277.061487217,280.592230826 313.061487217,280.592230826 331.061487217,249.41531629 313.061487217,218.238401754 277.061487217,218.238401754 "  />
<polygon style="stroke:rgb(0,0,0); stroke-width:4; fill:rgb(173,0,81); " points="151.061487217,311.769145362 169.061487217,342.946059899 205.061487217,342.946059899 223.061487217,311.769145362 205.061487217,280.592230826 169.061487217,280.592230826 "  />
<polygon style="stroke:rgb(0,0,0); stroke-width:4; fill:rgb(173,0,81); " points="43.0614872174,249.41531629 61.0614872174,280.592230826 97.0614872174,280.592230826 115.061487217,249.41531629 97.0614872174,218.238401754 61.0614872174,218.238401754 "  />
<polygon style="stroke:rgb(0,0,0); stroke-width:4; fill:rgb(173,0,81); " points="43.0614872174,124.707658145 61.0614872174,155.884572681 97.0614872174,155.884572681 115.061487217,124.707658145 97.0614872174,93.5307436087 61.0614872174,93.5307436087 "  />
<polygon style="stroke:rgb(0,0,0); stroke-width:4; fill:rgb(49,0,205); " points="205.061487217,93.5307436087 223.061487217,124.707658145 259.061487217,124.707658145 277.061487217,93.5307436087 259.061487217,62.3538290725 223.061487217,62.3538290725 "  />
<polygon style="stroke:rgb(0,0,0); stroke-width:4; fill:rgb(49,0,205); " points="259.061487217,187.061487217 277.061487217,218.238401754 313.061487217,218.238401754 331.061487217,187.061487217 313.061487217,155.884572681 277.061487217,155.884572681 "  />
<polygon style="stroke:rgb(0,0,0); stroke-width:4; fill:rgb(49,0,205); " points="205.061487217,280.592230826 223.061487217,311.769145362 259.061487217,311.769145362 277.061487217,280.592230826 259.061487217,249.41531629 223.061487217,249.41531629 "  />
<polygon style="stroke:rgb(0,0,0); stroke-width:4; fill:rgb(49,0,205); " points="97.0614872174,280.592230826 115.061487217,311.769145362 151.061487217,311.769145362 169.061487217,280.592230826 151.061487217,249.41531629 115.061487217,249.41531629 "  />
<polygon style="stroke:rgb(0,0,0); stroke-width:4; fill:rgb(49,0,205); " points="43.0614872174,187.061487217 61.0614872174,218.238401754 97.0614872174,218.238401754 115.061487217,187.061487217 97.0614872174,155.884572681 61.0614872174,155.884572681 "  />
<polygon style="stroke:rgb(0,0,0); stroke-width:4; fill:rgb(49,0,205); " points="97.0614872174,93.5307436087 115.061487217,124.707658145 151.061487217,124.707658145 169.061487217,93.5307436087 151.061487217,62.3538290725 115.061487217,62.3538290725 "  />
</svg>
