<?xml version="1.0" encoding="ISO-8859-1" standalone="no"?><svg xmlns="http://www.w3.org/2000/svg" version="1.1" xmlns:xlink="http://www.w3.org/1999/xlink"  >
<polygon style="stroke:rgb(0,0,0); stroke-width:4; fill:rgb(249,0,5); " points="244.592230826,280.592230826 262.592230826,311.769145362 298.592230826,311.769145362 316.592230826,280.592230826 298.592230826,249.41531629 262.592230826,249.41531629 "  />
<polygon style="stroke:rgb(0,0,0); stroke-width:4; fill:rgb(111,0,143); " points="244.592230826,218.238401754 262.592230826,249.41531629 298.592230826,249.41531629 316.592230826,218.238401754 298.592230826,187.061487217 262.592230826,187.061487217 "  />
<polygon style="stroke:rgb(0,0,0); stroke-width:4; fill:rgb(111,0,143); " points="298.592230826,249.41531629 316.592230826,280.592230826 352.592230826,280.592230826 370.592230826,249.41531629 352.592230826,218.238401754 316.592230826,218.238401754 "  />
<polygon style="stroke:rgb(0,0,0); stroke-width:4; fill:rgb(111,0,143); " points="298.592230826,311.769145362 316.592230826,342.946059899 352.592230826,342.946059899 370.592230826,311.769145362 352.592230826,280.592230826 316.592230826,280.592230826 "  />
<polygon style="stroke:rgb(0,0,0); stroke-width:4; fill:rgb(111,0,143); " points="244.592230826,342.946059899 262.592230826,374.122974435 298.592230826,374.122974435 316.592230826,342.946059899 298.592230826,311.769145362 262.592230826,311.769145362 "  />
<polygon style="stroke:rgb(0,0,0); stroke-width:4; fill:rgb(111,0,143); " points="190.592230826,311.769145362 208.592230826,342.946059899 244.592230826,342.946059899 262.592230826,311.769145362 244.592230826,280.592230826 208.592230826,280.592230826 "  />
<polygon style="stroke:rgb(0,0,0); stroke-width:4; fill:rgb(111,0,143); " points="190.592230826,249.41531629 208.592230826,280.592230826 244.592230826,280.592230826 262.592230826,249.41531629 244.592230826,218.238401754 208.592230826,218.238401754 "  />
<polygon style="stroke:rgb(0,0,0); stroke-width:4; fill:rgb(132,0,122); " points="244.592230826,155.884572681 262.592230826,187.061487217 298.592230826,187.061487217 316.592230826,155.884572681 298.592230826,124.707658145 262.592230826,124.707658145 "  />
<polygon style="stroke:rgb(0,0,0); stroke-width:4; fill:rgb(132,0,122); " points="352.592230826,218.238401754 370.592230826,249.41531629 406.592230826,249.41531629 424.592230826,218.238401754 406.592230826,187.061487217 370.592230826,187.061487217 "  />
<polygon style="stroke:rgb(0,0,0); stroke-width:4; fill:rgb(132,0,122); " points="352.592230826,342.946059899 370.592230826,374.122974435 406.592230826,374.122974435 424.592230826,342.946059899 406.592230826,311.769145362 370.592230826,311.769145362 "  />
<polygon style="stroke:rgb(0,0,0); stroke-width:4; fill:rgb(132,0,122); " points="244.592230826,405.299888971 262.592230826,436.476803507 298.592230826,436.476803507 316.592230826,405.299888971 298.592230826,374.122974435 262.592230826,374.122974435 "  />
<polygon style="stroke:rgb(0,0,0); stroke-width:4; fill:rgb(132,0,122); " points="136.592230826,342.946059899 154.592230826,374.122974435 190.592230826,374.122974435 208.592230826,342.946059899 190.592230826,311.769145362 154.592230826,311.769145362 "  />
<polygon style="stroke:rgb(0,0,0); stroke-width:4; fill:rgb(132,0,122); " points="136.592230826,218.238401754 154.592230826,249.41531629 190.592230826,249.41531629 208.592230826,218.238401754 190.592230826,187.061487217 154.592230826,187.061487217 "  />
<polygon style="stroke:rgb(0,0,0); stroke-width:4; fill:rgb(262,0,-7); " points="298.592230826,187.061487217 316.592230826,218.238401754 352.592230826,218.238401754 370.592230826,187.061487217 352.592230826,155.884572681 316.592230826,155.884572681 "  />
<polygon style="stroke:rgb(0,0,0); stroke-width:4; fill:rgb(262,0,-7); " points="352.592230826,280.592230826 370.592230826,311.769145362 406.592230826,311.769145362 424.592230826,280.592230826 406.592230826,249.41531629 370.592230826,249.41531629 "  />
<polygon style="stroke:rgb(0,0,0); stroke-width:4; fill:rgb(262,0,-7); " points="298.592230826,374.122974435 316.592230826,405.299888971 352.592230826,405.299888971 370.592230826,374.122974435 352.592230826,342.946059899 316.592230826,342.946059899 "  />
<polygon style="stroke:rgb(0,0,0); stroke-width:4; fill:rgb(262,0,-7); " points="190.592230826,374.122974435 208.592230826,405.299888971 244.592230826,405.299888971 262.592230826,374.122974435 244.592230826,342.946059899 208.592230826,342.946059899 "  />
<polygon style="stroke:rgb(0,0,0); stroke-width:4; fill:rgb(262,0,-7); " points="136.592230826,280.592230826 154.592230826,311.769145362 190.592230826,311.769145362 208.592230826,280.592230826 190.592230826,249.41531629 154.592230826,249.41531629 "  />
<polygon style="stroke:rgb(0,0,0); stroke-width:4; fill:rgb(262,0,-7); " points="190.592230826,187.061487217 208.592230826,218.238401754 244.592230826,218.238401754 262.592230826,187.061487217 244.592230826,155.884572681 208.592230826,155.884572681 "  />
<polygon style="stroke:rgb(0,0,0); stroke-width:4; fill:rgb(50,0,204); " points="298.592230826,124.707658145 316.592230826,155.884572681 352.592230826,155.884572681 370.592230826,124.707658145 352.592230826,93.5307436087 316.592230826,93.5307436087 "  />
<polygon style="stroke:rgb(0,0,0); stroke-width:4; fill:rgb(50,0,204); " points="406.592230826,249.41531629 424.592230826,280.592230826 460.592230826,280.592230826 478.592230826,249.41531629 460.592230826,218.238401754 424.592230826,218.238401754 "  />
<polygon style="stroke:rgb(0,0,0); stroke-width:4; fill:rgb(50,0,204); " points="352.592230826,405.299888971 370.592230826,436.476803507 406.592230826,436.476803507 424.592230826,405.299888971 406.592230826,374.122974435 370.592230826,374.122974435 "  />
<polygon style="stroke:rgb(0,0,0); stroke-width:4; fill:rgb(50,0,204); " points="190.592230826,436.476803507 208.592230826,467.653718044 244.592230826,467.653718044 262.592230826,436.476803507 244.592230826,405.299888971 208.592230826,405.299888971 "  />
<polygon style="stroke:rgb(0,0,0); stroke-width:4; fill:rgb(50,0,204); " points="82.5922308262,311.769145362 100.592230826,342.946059899 136.592230826,342.946059899 154.592230826,311.769145362 136.592230826,280.592230826 100.592230826,280.592230826 "  />
<polygon style="stroke:rgb(0,0,0); stroke-width:4; fill:rgb(50,0,204); " points="136.592230826,155.884572681 154.592230826,187.061487217 190.592230826,187.061487217 208.592230826,155.884572681 190.592230826,124.707658145 154.592230826,124.707658145 "  />
<polygon style="stroke:rgb(0,0,0); stroke-width:4; fill:rgb(50,0,204); " points="352.592230826,155.884572681 370.592230826,187.061487217 406.592230826,187.061487217 424.592230826,155.884572681 406.592230826,124.707658145 370.592230826,124.707658145 "  />
<polygon style="stroke:rgb(0,0,0); stroke-width:4; fill:rgb(50,0,204); " points="406.592230826,311.769145362 424.592230826,342.946059899 460.592230826,342.946059899 478.592230826,311.769145362 460.592230826,280.592230826 424.592230826,280.592230826 "  />
<polygon style="stroke:rgb(0,0,0); stroke-width:4; fill:rgb(50,0,204); " points="298.592230826,436.476803507 316.592230826,467.653718044 352.592230826,467.653718044 370.592230826,436.476803507 352.592230826,405.299888971 316.592230826,405.299888971 "  />
<polygon style="stroke:rgb(0,0,0); stroke-width:4; fill:rgb(50,0,204); " points="136.592230826,405.299888971 154.592230826,436.476803507 190.592230826,436.476803507 208.592230826,405.299888971 190.592230826,374.122974435 154.592230826,374.122974435 "  />
<polygon style="stroke:rgb(0,0,0); stroke-width:4; fill:rgb(50,0,204); " points="82.5922308262,249.41531629 100.592230826,280.592230826 136.592230826,280.592230826 154.592230826,249.41531629 136.592230826,218.238401754 100.592230826,218.238401754 "  />
<polygon style="stroke:rgb(0,0,0); stroke-width:4; fill:rgb(50,0,204); " points="190.592230826,124.707658145 208.592230826,155.884572681 244.592230826,155.884572681 262.592230826,124.707658145 244.592230826,93.5307436087 208.592230826,93.5307436087 "  />
</svg>
