<?xml version="1.0" encoding="ISO-8859-1" standalone="no"?><svg xmlns="http://www.w3.org/2000/svg" version="1.1" xmlns:xlink="http://www.w3.org/1999/xlink"  >
<polygon style="stroke:rgb(0,0,0); stroke-width:4; fill:rgb(235,0,19); " points="431.653718044,467.653718044 449.653718044,498.83063258 485.653718044,498.83063258 503.653718044,467.653718044 485.653718044,436.476803507 449.653718044,436.476803507 "  />
<polygon style="stroke:rgb(0,0,0); stroke-width:4; fill:rgb(122,0,132); " points="431.653718044,405.299888971 449.653718044,436.476803507 485.653718044,436.476803507 503.653718044,405.299888971 485.653718044,374.122974435 449.653718044,374.122974435 "  />
<polygon style="stroke:rgb(0,0,0); stroke-width:4; fill:rgb(122,0,132); " points="485.653718044,436.476803507 503.653718044,467.653718044 539.653718044,467.653718044 557.653718044,436.476803507 539.653718044,405.299888971 503.653718044,405.299888971 "  />
<polygon style="stroke:rgb(0,0,0); stroke-width:4; fill:rgb(122,0,132); " points="485.653718044,498.83063258 503.653718044,530.007547116 539.653718044,530.007547116 557.653718044,498.83063258 539.653718044,467.653718044 503.653718044,467.653718044 "  />
<polygon style="stroke:rgb(0,0,0); stroke-width:4; fill:rgb(122,0,132); " points="431.653718044,530.007547116 449.653718044,561.184461652 485.653718044,561.184461652 503.653718044,530.007547116 485.653718044,498.83063258 449.653718044,498.83063258 "  />
<polygon style="stroke:rgb(0,0,0); stroke-width:4; fill:rgb(122,0,132); " points="377.653718044,498.83063258 395.653718044,530.007547116 431.653718044,530.007547116 449.653718044,498.83063258 431.653718044,467.653718044 395.653718044,467.653718044 "  />
<polygon style="stroke:rgb(0,0,0); stroke-width:4; fill:rgb(122,0,132); " points="377.653718044,436.476803507 395.653718044,467.653718044 431.653718044,467.653718044 449.653718044,436.476803507 431.653718044,405.299888971 395.653718044,405.299888971 "  />
<polygon style="stroke:rgb(0,0,0); stroke-width:4; fill:rgb(137,0,117); " points="431.653718044,342.946059899 449.653718044,374.122974435 485.653718044,374.122974435 503.653718044,342.946059899 485.653718044,311.769145362 449.653718044,311.769145362 "  />
<polygon style="stroke:rgb(0,0,0); stroke-width:4; fill:rgb(137,0,117); " points="539.653718044,405.299888971 557.653718044,436.476803507 593.653718044,436.476803507 611.653718044,405.299888971 593.653718044,374.122974435 557.653718044,374.122974435 "  />
<polygon style="stroke:rgb(0,0,0); stroke-width:4; fill:rgb(137,0,117); " points="539.653718044,530.007547116 557.653718044,561.184461652 593.653718044,561.184461652 611.653718044,530.007547116 593.653718044,498.83063258 557.653718044,498.83063258 "  />
<polygon style="stroke:rgb(0,0,0); stroke-width:4; fill:rgb(137,0,117); " points="431.653718044,592.361376189 449.653718044,623.538290725 485.653718044,623.538290725 503.653718044,592.361376189 485.653718044,561.184461652 449.653718044,561.184461652 "  />
<polygon style="stroke:rgb(0,0,0); stroke-width:4; fill:rgb(137,0,117); " points="323.653718044,530.007547116 341.653718044,561.184461652 377.653718044,561.184461652 395.653718044,530.007547116 377.653718044,498.83063258 341.653718044,498.83063258 "  />
<polygon style="stroke:rgb(0,0,0); stroke-width:4; fill:rgb(137,0,117); " points="323.653718044,405.299888971 341.653718044,436.476803507 377.653718044,436.476803507 395.653718044,405.299888971 377.653718044,374.122974435 341.653718044,374.122974435 "  />
<polygon style="stroke:rgb(0,0,0); stroke-width:4; fill:rgb(259,0,-4); " points="431.653718044,280.592230826 449.653718044,311.769145362 485.653718044,311.769145362 503.653718044,280.592230826 485.653718044,249.41531629 449.653718044,249.41531629 "  />
<polygon style="stroke:rgb(0,0,0); stroke-width:4; fill:rgb(259,0,-4); " points="593.653718044,374.122974435 611.653718044,405.299888971 647.653718044,405.299888971 665.653718044,374.122974435 647.653718044,342.946059899 611.653718044,342.946059899 "  />
<polygon style="stroke:rgb(0,0,0); stroke-width:4; fill:rgb(259,0,-4); " points="593.653718044,561.184461652 611.653718044,592.361376189 647.653718044,592.361376189 665.653718044,561.184461652 647.653718044,530.007547116 611.653718044,530.007547116 "  />
<polygon style="stroke:rgb(0,0,0); stroke-width:4; fill:rgb(259,0,-4); " points="431.653718044,654.715205261 449.653718044,685.892119797 485.653718044,685.892119797 503.653718044,654.715205261 485.653718044,623.538290725 449.653718044,623.538290725 "  />
<polygon style="stroke:rgb(0,0,0); stroke-width:4; fill:rgb(259,0,-4); " points="269.653718044,561.184461652 287.653718044,592.361376189 323.653718044,592.361376189 341.653718044,561.184461652 323.653718044,530.007547116 287.653718044,530.007547116 "  />
<polygon style="stroke:rgb(0,0,0); stroke-width:4; fill:rgb(259,0,-4); " points="269.653718044,374.122974435 287.653718044,405.299888971 323.653718044,405.299888971 341.653718044,374.122974435 323.653718044,342.946059899 287.653718044,342.946059899 "  />
<polygon style="stroke:rgb(0,0,0); stroke-width:4; fill:rgb(92,0,162); " points="431.653718044,218.238401754 449.653718044,249.41531629 485.653718044,249.41531629 503.653718044,218.238401754 485.653718044,187.061487217 449.653718044,187.061487217 "  />
<polygon style="stroke:rgb(0,0,0); stroke-width:4; fill:rgb(92,0,162); " points="647.653718044,342.946059899 665.653718044,374.122974435 701.653718044,374.122974435 719.653718044,342.946059899 701.653718044,311.769145362 665.653718044,311.769145362 "  />
<polygon style="stroke:rgb(0,0,0); stroke-width:4; fill:rgb(92,0,162); " points="647.653718044,592.361376189 665.653718044,623.538290725 701.653718044,623.538290725 719.653718044,592.361376189 701.653718044,561.184461652 665.653718044,561.184461652 "  />
<polygon style="stroke:rgb(0,0,0); stroke-width:4; fill:rgb(92,0,162); " points="431.653718044,717.069034334 449.653718044,748.24594887 485.653718044,748.24594887 503.653718044,717.069034334 485.653718044,685.892119797 449.653718044,685.892119797 "  />
<polygon style="stroke:rgb(0,0,0); stroke-width:4; fill:rgb(92,0,162); " points="215.653718044,592.361376189 233.653718044,623.538290725 269.653718044,623.538290725 287.653718044,592.361376189 269.653718044,561.184461652 233.653718044,561.184461652 "  />
<polygon style="stroke:rgb(0,0,0); stroke-width:4; fill:rgb(92,0,162); " points="215.653718044,342.946059899 233.653718044,374.122974435 269.653718044,374.122974435 287.653718044,342.946059899 269.653718044,311.769145362 233.653718044,311.769145362 "  />
<polygon style="stroke:rgb(0,0,0); stroke-width:4; fill:rgb(243,0,11); " points="485.653718044,374.122974435 503.653718044,405.299888971 539.653718044,405.299888971 557.653718044,374.122974435 539.653718044,342.946059899 503.653718044,342.946059899 "  />
<polygon style="stroke:rgb(0,0,0); stroke-width:4; fill:rgb(243,0,11); " points="539.653718044,467.653718044 557.653718044,498.83063258 593.653718044,498.83063258 611.653718044,467.653718044 593.653718044,436.476803507 557.653718044,436.476803507 "  />
<polygon style="stroke:rgb(0,0,0); stroke-width:4; fill:rgb(243,0,11); " points="485.653718044,561.184461652 503.653718044,592.361376189 539.653718044,592.361376189 557.653718044,561.184461652 539.653718044,530.007547116 503.653718044,530.007547116 "  />
<polygon style="stroke:rgb(0,0,0); stroke-width:4; fill:rgb(243,0,11); " points="377.653718044,561.184461652 395.653718044,592.361376189 431.653718044,592.361376189 449.653718044,561.184461652 431.653718044,530.007547116 395.653718044,530.007547116 "  />
<polygon style="stroke:rgb(0,0,0); stroke-width:4; fill:rgb(243,0,11); " points="323.653718044,467.653718044 341.653718044,498.83063258 377.653718044,498.83063258 395.653718044,467.653718044 377.653718044,436.476803507 341.653718044,436.476803507 "  />
<polygon style="stroke:rgb(0,0,0); stroke-width:4; fill:rgb(243,0,11); " points="377.653718044,374.122974435 395.653718044,405.299888971 431.653718044,405.299888971 449.653718044,374.122974435 431.653718044,342.946059899 395.653718044,342.946059899 "  />
<polygon style="stroke:rgb(0,0,0); stroke-width:4; fill:rgb(88,0,166); " points="485.653718044,311.769145362 503.653718044,342.946059899 539.653718044,342.946059899 557.653718044,311.769145362 539.653718044,280.592230826 503.653718044,280.592230826 "  />
<polygon style="stroke:rgb(0,0,0); stroke-width:4; fill:rgb(88,0,166); " points="593.653718044,436.476803507 611.653718044,467.653718044 647.653718044,467.653718044 665.653718044,436.476803507 647.653718044,405.299888971 611.653718044,405.299888971 "  />
<polygon style="stroke:rgb(0,0,0); stroke-width:4; fill:rgb(88,0,166); " points="539.653718044,592.361376189 557.653718044,623.538290725 593.653718044,623.538290725 611.653718044,592.361376189 593.653718044,561.184461652 557.653718044,561.184461652 "  />
<polygon style="stroke:rgb(0,0,0); stroke-width:4; fill:rgb(88,0,166); " points="377.653718044,623.538290725 395.653718044,654.715205261 431.653718044,654.715205261 449.653718044,623.538290725 431.653718044,592.361376189 395.653718044,592.361376189 "  />
<polygon style="stroke:rgb(0,0,0); stroke-width:4; fill:rgb(88,0,166); " points="269.653718044,498.83063258 287.653718044,530.007547116 323.653718044,530.007547116 341.653718044,498.83063258 323.653718044,467.653718044 287.653718044,467.653718044 "  />
<polygon style="stroke:rgb(0,0,0); stroke-width:4; fill:rgb(88,0,166); " points="323.653718044,342.946059899 341.653718044,374.122974435 377.653718044,374.122974435 395.653718044,342.946059899 377.653718044,311.769145362 341.653718044,311.769145362 "  />
<polygon style="stroke:rgb(0,0,0); stroke-width:4; fill:rgb(127,0,127); " points="539.653718044,342.946059899 557.653718044,374.122974435 593.653718044,374.122974435 611.653718044,342.946059899 593.653718044,311.769145362 557.653718044,311.769145362 "  />
<polygon style="stroke:rgb(0,0,0); stroke-width:4; fill:rgb(127,0,127); " points="593.653718044,498.83063258 611.653718044,530.007547116 647.653718044,530.007547116 665.653718044,498.83063258 647.653718044,467.653718044 611.653718044,467.653718044 "  />
<polygon style="stroke:rgb(0,0,0); stroke-width:4; fill:rgb(127,0,127); " points="485.653718044,623.538290725 503.653718044,654.715205261 539.653718044,654.715205261 557.653718044,623.538290725 539.653718044,592.361376189 503.653718044,592.361376189 "  />
<polygon style="stroke:rgb(0,0,0); stroke-width:4; fill:rgb(127,0,127); " points="323.653718044,592.361376189 341.653718044,623.538290725 377.653718044,623.538290725 395.653718044,592.361376189 377.653718044,561.184461652 341.653718044,561.184461652 "  />
<polygon style="stroke:rgb(0,0,0); stroke-width:4; fill:rgb(127,0,127); " points="269.653718044,436.476803507 287.653718044,467.653718044 323.653718044,467.653718044 341.653718044,436.476803507 323.653718044,405.299888971 287.653718044,405.299888971 "  />
<polygon style="stroke:rgb(0,0,0); stroke-width:4; fill:rgb(127,0,127); " points="377.653718044,311.769145362 395.653718044,342.946059899 431.653718044,342.946059899 449.653718044,311.769145362 431.653718044,280.592230826 395.653718044,280.592230826 "  />
<polygon style="stroke:rgb(0,0,0); stroke-width:4; fill:rgb(304,0,-49); " points="485.653718044,249.41531629 503.653718044,280.592230826 539.653718044,280.592230826 557.653718044,249.41531629 539.653718044,218.238401754 503.653718044,218.238401754 "  />
<polygon style="stroke:rgb(0,0,0); stroke-width:4; fill:rgb(304,0,-49); " points="647.653718044,405.299888971 665.653718044,436.476803507 701.653718044,436.476803507 719.653718044,405.299888971 701.653718044,374.122974435 665.653718044,374.122974435 "  />
<polygon style="stroke:rgb(0,0,0); stroke-width:4; fill:rgb(304,0,-49); " points="593.653718044,623.538290725 611.653718044,654.715205261 647.653718044,654.715205261 665.653718044,623.538290725 647.653718044,592.361376189 611.653718044,592.361376189 "  />
<polygon style="stroke:rgb(0,0,0); stroke-width:4; fill:rgb(304,0,-49); " points="377.653718044,685.892119797 395.653718044,717.069034334 431.653718044,717.069034334 449.653718044,685.892119797 431.653718044,654.715205261 395.653718044,654.715205261 "  />
<polygon style="stroke:rgb(0,0,0); stroke-width:4; fill:rgb(304,0,-49); " points="215.653718044,530.007547116 233.653718044,561.184461652 269.653718044,561.184461652 287.653718044,530.007547116 269.653718044,498.83063258 233.653718044,498.83063258 "  />
<polygon style="stroke:rgb(0,0,0); stroke-width:4; fill:rgb(304,0,-49); " points="269.653718044,311.769145362 287.653718044,342.946059899 323.653718044,342.946059899 341.653718044,311.769145362 323.653718044,280.592230826 287.653718044,280.592230826 "  />
<polygon style="stroke:rgb(0,0,0); stroke-width:4; fill:rgb(258,0,-3); " points="539.653718044,280.592230826 557.653718044,311.769145362 593.653718044,311.769145362 611.653718044,280.592230826 593.653718044,249.41531629 557.653718044,249.41531629 "  />
<polygon style="stroke:rgb(0,0,0); stroke-width:4; fill:rgb(258,0,-3); " points="647.653718044,467.653718044 665.653718044,498.83063258 701.653718044,498.83063258 719.653718044,467.653718044 701.653718044,436.476803507 665.653718044,436.476803507 "  />
<polygon style="stroke:rgb(0,0,0); stroke-width:4; fill:rgb(258,0,-3); " points="539.653718044,654.715205261 557.653718044,685.892119797 593.653718044,685.892119797 611.653718044,654.715205261 593.653718044,623.538290725 557.653718044,623.538290725 "  />
<polygon style="stroke:rgb(0,0,0); stroke-width:4; fill:rgb(258,0,-3); " points="323.653718044,654.715205261 341.653718044,685.892119797 377.653718044,685.892119797 395.653718044,654.715205261 377.653718044,623.538290725 341.653718044,623.538290725 "  />
<polygon style="stroke:rgb(0,0,0); stroke-width:4; fill:rgb(258,0,-3); " points="215.653718044,467.653718044 233.653718044,498.83063258 269.653718044,498.83063258 287.653718044,467.653718044 269.653718044,436.476803507 233.653718044,436.476803507 "  />
<polygon style="stroke:rgb(0,0,0); stroke-width:4; fill:rgb(258,0,-3); " points="323.653718044,280.592230826 341.653718044,311.769145362 377.653718044,311.769145362 395.653718044,280.592230826 377.653718044,249.41531629 341.653718044,249.41531629 "  />
<polygon style="stroke:rgb(0,0,0); stroke-width:4; fill:rgb(172,0,82); " points="593.653718044,311.769145362 611.653718044,342.946059899 647.653718044,342.946059899 665.653718044,311.769145362 647.653718044,280.592230826 611.653718044,280.592230826 "  />
<polygon style="stroke:rgb(0,0,0); stroke-width:4; fill:rgb(172,0,82); " points="647.653718044,530.007547116 665.653718044,561.184461652 701.653718044,561.184461652 719.653718044,530.007547116 701.653718044,498.83063258 665.653718044,498.83063258 "  />
<polygon style="stroke:rgb(0,0,0); stroke-width:4; fill:rgb(172,0,82); " points="485.653718044,685.892119797 503.653718044,717.069034334 539.653718044,717.069034334 557.653718044,685.892119797 539.653718044,654.715205261 503.653718044,654.715205261 "  />
<polygon style="stroke:rgb(0,0,0); stroke-width:4; fill:rgb(172,0,82); " points="269.653718044,623.538290725 287.653718044,654.715205261 323.653718044,654.715205261 341.653718044,623.538290725 323.653718044,592.361376189 287.653718044,592.361376189 "  />
<polygon style="stroke:rgb(0,0,0); stroke-width:4; fill:rgb(172,0,82); " points="215.653718044,405.299888971 233.653718044,436.476803507 269.653718044,436.476803507 287.653718044,405.299888971 269.653718044,374.122974435 233.653718044,374.122974435 "  />
<polygon style="stroke:rgb(0,0,0); stroke-width:4; fill:rgb(172,0,82); " points="377.653718044,249.41531629 395.653718044,280.592230826 431.653718044,280.592230826 449.653718044,249.41531629 431.653718044,218.238401754 395.653718044,218.238401754 "  />
<polygon style="stroke:rgb(0,0,0); stroke-width:4; fill:rgb(61,0,193); " points="485.653718044,187.061487217 503.653718044,218.238401754 539.653718044,218.238401754 557.653718044,187.061487217 539.653718044,155.884572681 503.653718044,155.884572681 "  />
<polygon style="stroke:rgb(0,0,0); stroke-width:4; fill:rgb(61,0,193); " points="701.653718044,374.122974435 719.653718044,405.299888971 755.653718044,405.299888971 773.653718044,374.122974435 755.653718044,342.946059899 719.653718044,342.946059899 "  />
<polygon style="stroke:rgb(0,0,0); stroke-width:4; fill:rgb(61,0,193); " points="647.653718044,654.715205261 665.653718044,685.892119797 701.653718044,685.892119797 719.653718044,654.715205261 701.653718044,623.538290725 665.653718044,623.538290725 "  />
<polygon style="stroke:rgb(0,0,0); stroke-width:4; fill:rgb(61,0,193); " points="377.653718044,748.24594887 395.653718044,779.422863406 431.653718044,779.422863406 449.653718044,748.24594887 431.653718044,717.069034334 395.653718044,717.069034334 "  />
<polygon style="stroke:rgb(0,0,0); stroke-width:4; fill:rgb(61,0,193); " points="161.653718044,561.184461652 179.653718044,592.361376189 215.653718044,592.361376189 233.653718044,561.184461652 215.653718044,530.007547116 179.653718044,530.007547116 "  />
<polygon style="stroke:rgb(0,0,0); stroke-width:4; fill:rgb(61,0,193); " points="215.653718044,280.592230826 233.653718044,311.769145362 269.653718044,311.769145362 287.653718044,280.592230826 269.653718044,249.41531629 233.653718044,249.41531629 "  />
</svg>
