<?xml version="1.0" encoding="ISO-8859-1" standalone="no"?><svg xmlns="http://www.w3.org/2000/svg" version="1.1" xmlns:xlink="http://www.w3.org/1999/xlink"  >
<polygon style="stroke:rgb(0,0,0); stroke-width:4; fill:rgb(101,0,153); " points="525.184461652,561.184461652 543.184461652,592.361376189 579.184461652,592.361376189 597.184461652,561.184461652 579.184461652,530.007547116 543.184461652,530.007547116 "  />
<polygon style="stroke:rgb(0,0,0); stroke-width:4; fill:rgb(197,0,57); " points="525.184461652,498.83063258 543.184461652,530.007547116 579.184461652,530.007547116 597.184461652,498.83063258 579.184461652,467.653718044 543.184461652,467.653718044 "  />
<polygon style="stroke:rgb(0,0,0); stroke-width:4; fill:rgb(197,0,57); " points="579.184461652,530.007547116 597.184461652,561.184461652 633.184461652,561.184461652 651.184461652,530.007547116 633.184461652,498.83063258 597.184461652,498.83063258 "  />
<polygon style="stroke:rgb(0,0,0); stroke-width:4; fill:rgb(197,0,57); " points="579.184461652,592.361376189 597.184461652,623.538290725 633.184461652,623.538290725 651.184461652,592.361376189 633.184461652,561.184461652 597.184461652,561.184461652 "  />
<polygon style="stroke:rgb(0,0,0); stroke-width:4; fill:rgb(197,0,57); " points="525.184461652,623.538290725 543.184461652,654.715205261 579.184461652,654.715205261 597.184461652,623.538290725 579.184461652,592.361376189 543.184461652,592.361376189 "  />
<polygon style="stroke:rgb(0,0,0); stroke-width:4; fill:rgb(197,0,57); " points="471.184461652,592.361376189 489.184461652,623.538290725 525.184461652,623.538290725 543.184461652,592.361376189 525.184461652,561.184461652 489.184461652,561.184461652 "  />
<polygon style="stroke:rgb(0,0,0); stroke-width:4; fill:rgb(197,0,57); " points="471.184461652,530.007547116 489.184461652,561.184461652 525.184461652,561.184461652 543.184461652,530.007547116 525.184461652,498.83063258 489.184461652,498.83063258 "  />
<polygon style="stroke:rgb(0,0,0); stroke-width:4; fill:rgb(191,0,63); " points="525.184461652,436.476803507 543.184461652,467.653718044 579.184461652,467.653718044 597.184461652,436.476803507 579.184461652,405.299888971 543.184461652,405.299888971 "  />
<polygon style="stroke:rgb(0,0,0); stroke-width:4; fill:rgb(191,0,63); " points="633.184461652,498.83063258 651.184461652,530.007547116 687.184461652,530.007547116 705.184461652,498.83063258 687.184461652,467.653718044 651.184461652,467.653718044 "  />
<polygon style="stroke:rgb(0,0,0); stroke-width:4; fill:rgb(191,0,63); " points="633.184461652,623.538290725 651.184461652,654.715205261 687.184461652,654.715205261 705.184461652,623.538290725 687.184461652,592.361376189 651.184461652,592.361376189 "  />
<polygon style="stroke:rgb(0,0,0); stroke-width:4; fill:rgb(191,0,63); " points="525.184461652,685.892119797 543.184461652,717.069034334 579.184461652,717.069034334 597.184461652,685.892119797 579.184461652,654.715205261 543.184461652,654.715205261 "  />
<polygon style="stroke:rgb(0,0,0); stroke-width:4; fill:rgb(191,0,63); " points="417.184461652,623.538290725 435.184461652,654.715205261 471.184461652,654.715205261 489.184461652,623.538290725 471.184461652,592.361376189 435.184461652,592.361376189 "  />
<polygon style="stroke:rgb(0,0,0); stroke-width:4; fill:rgb(191,0,63); " points="417.184461652,498.83063258 435.184461652,530.007547116 471.184461652,530.007547116 489.184461652,498.83063258 471.184461652,467.653718044 435.184461652,467.653718044 "  />
<polygon style="stroke:rgb(0,0,0); stroke-width:4; fill:rgb(97,0,157); " points="525.184461652,374.122974435 543.184461652,405.299888971 579.184461652,405.299888971 597.184461652,374.122974435 579.184461652,342.946059899 543.184461652,342.946059899 "  />
<polygon style="stroke:rgb(0,0,0); stroke-width:4; fill:rgb(97,0,157); " points="687.184461652,467.653718044 705.184461652,498.83063258 741.184461652,498.83063258 759.184461652,467.653718044 741.184461652,436.476803507 705.184461652,436.476803507 "  />
<polygon style="stroke:rgb(0,0,0); stroke-width:4; fill:rgb(97,0,157); " points="687.184461652,654.715205261 705.184461652,685.892119797 741.184461652,685.892119797 759.184461652,654.715205261 741.184461652,623.538290725 705.184461652,623.538290725 "  />
<polygon style="stroke:rgb(0,0,0); stroke-width:4; fill:rgb(97,0,157); " points="525.184461652,748.24594887 543.184461652,779.422863406 579.184461652,779.422863406 597.184461652,748.24594887 579.184461652,717.069034334 543.184461652,717.069034334 "  />
<polygon style="stroke:rgb(0,0,0); stroke-width:4; fill:rgb(97,0,157); " points="363.184461652,654.715205261 381.184461652,685.892119797 417.184461652,685.892119797 435.184461652,654.715205261 417.184461652,623.538290725 381.184461652,623.538290725 "  />
<polygon style="stroke:rgb(0,0,0); stroke-width:4; fill:rgb(97,0,157); " points="363.184461652,467.653718044 381.184461652,498.83063258 417.184461652,498.83063258 435.184461652,467.653718044 417.184461652,436.476803507 381.184461652,436.476803507 "  />
<polygon style="stroke:rgb(0,0,0); stroke-width:4; fill:rgb(284,0,-29); " points="525.184461652,311.769145362 543.184461652,342.946059899 579.184461652,342.946059899 597.184461652,311.769145362 579.184461652,280.592230826 543.184461652,280.592230826 "  />
<polygon style="stroke:rgb(0,0,0); stroke-width:4; fill:rgb(284,0,-29); " points="741.184461652,436.476803507 759.184461652,467.653718044 795.184461652,467.653718044 813.184461652,436.476803507 795.184461652,405.299888971 759.184461652,405.299888971 "  />
<polygon style="stroke:rgb(0,0,0); stroke-width:4; fill:rgb(284,0,-29); " points="741.184461652,685.892119797 759.184461652,717.069034334 795.184461652,717.069034334 813.184461652,685.892119797 795.184461652,654.715205261 759.184461652,654.715205261 "  />
<polygon style="stroke:rgb(0,0,0); stroke-width:4; fill:rgb(284,0,-29); " points="525.184461652,810.599777942 543.184461652,841.776692478 579.184461652,841.776692478 597.184461652,810.599777942 579.184461652,779.422863406 543.184461652,779.422863406 "  />
<polygon style="stroke:rgb(0,0,0); stroke-width:4; fill:rgb(284,0,-29); " points="309.184461652,685.892119797 327.184461652,717.069034334 363.184461652,717.069034334 381.184461652,685.892119797 363.184461652,654.715205261 327.184461652,654.715205261 "  />
<polygon style="stroke:rgb(0,0,0); stroke-width:4; fill:rgb(284,0,-29); " points="309.184461652,436.476803507 327.184461652,467.653718044 363.184461652,467.653718044 381.184461652,436.476803507 363.184461652,405.299888971 327.184461652,405.299888971 "  />
<polygon style="stroke:rgb(0,0,0); stroke-width:4; fill:rgb(109,0,145); " points="525.184461652,249.41531629 543.184461652,280.592230826 579.184461652,280.592230826 597.184461652,249.41531629 579.184461652,218.238401754 543.184461652,218.238401754 "  />
<polygon style="stroke:rgb(0,0,0); stroke-width:4; fill:rgb(109,0,145); " points="795.184461652,405.299888971 813.184461652,436.476803507 849.184461652,436.476803507 867.184461652,405.299888971 849.184461652,374.122974435 813.184461652,374.122974435 "  />
<polygon style="stroke:rgb(0,0,0); stroke-width:4; fill:rgb(109,0,145); " points="795.184461652,717.069034334 813.184461652,748.24594887 849.184461652,748.24594887 867.184461652,717.069034334 849.184461652,685.892119797 813.184461652,685.892119797 "  />
<polygon style="stroke:rgb(0,0,0); stroke-width:4; fill:rgb(109,0,145); " points="525.184461652,872.953607015 543.184461652,904.130521551 579.184461652,904.130521551 597.184461652,872.953607015 579.184461652,841.776692478 543.184461652,841.776692478 "  />
<polygon style="stroke:rgb(0,0,0); stroke-width:4; fill:rgb(109,0,145); " points="255.184461652,717.069034334 273.184461652,748.24594887 309.184461652,748.24594887 327.184461652,717.069034334 309.184461652,685.892119797 273.184461652,685.892119797 "  />
<polygon style="stroke:rgb(0,0,0); stroke-width:4; fill:rgb(109,0,145); " points="255.184461652,405.299888971 273.184461652,436.476803507 309.184461652,436.476803507 327.184461652,405.299888971 309.184461652,374.122974435 273.184461652,374.122974435 "  />
<polygon style="stroke:rgb(0,0,0); stroke-width:4; fill:rgb(96,0,158); " points="579.184461652,467.653718044 597.184461652,498.83063258 633.184461652,498.83063258 651.184461652,467.653718044 633.184461652,436.476803507 597.184461652,436.476803507 "  />
<polygon style="stroke:rgb(0,0,0); stroke-width:4; fill:rgb(96,0,158); " points="633.184461652,561.184461652 651.184461652,592.361376189 687.184461652,592.361376189 705.184461652,561.184461652 687.184461652,530.007547116 651.184461652,530.007547116 "  />
<polygon style="stroke:rgb(0,0,0); stroke-width:4; fill:rgb(96,0,158); " points="579.184461652,654.715205261 597.184461652,685.892119797 633.184461652,685.892119797 651.184461652,654.715205261 633.184461652,623.538290725 597.184461652,623.538290725 "  />
<polygon style="stroke:rgb(0,0,0); stroke-width:4; fill:rgb(96,0,158); " points="471.184461652,654.715205261 489.184461652,685.892119797 525.184461652,685.892119797 543.184461652,654.715205261 525.184461652,623.538290725 489.184461652,623.538290725 "  />
<polygon style="stroke:rgb(0,0,0); stroke-width:4; fill:rgb(96,0,158); " points="417.184461652,561.184461652 435.184461652,592.361376189 471.184461652,592.361376189 489.184461652,561.184461652 471.184461652,530.007547116 435.184461652,530.007547116 "  />
<polygon style="stroke:rgb(0,0,0); stroke-width:4; fill:rgb(96,0,158); " points="471.184461652,467.653718044 489.184461652,498.83063258 525.184461652,498.83063258 543.184461652,467.653718044 525.184461652,436.476803507 489.184461652,436.476803507 "  />
<polygon style="stroke:rgb(0,0,0); stroke-width:4; fill:rgb(217,0,37); " points="579.184461652,405.299888971 597.184461652,436.476803507 633.184461652,436.476803507 651.184461652,405.299888971 633.184461652,374.122974435 597.184461652,374.122974435 "  />
<polygon style="stroke:rgb(0,0,0); stroke-width:4; fill:rgb(217,0,37); " points="687.184461652,530.007547116 705.184461652,561.184461652 741.184461652,561.184461652 759.184461652,530.007547116 741.184461652,498.83063258 705.184461652,498.83063258 "  />
<polygon style="stroke:rgb(0,0,0); stroke-width:4; fill:rgb(217,0,37); " points="633.184461652,685.892119797 651.184461652,717.069034334 687.184461652,717.069034334 705.184461652,685.892119797 687.184461652,654.715205261 651.184461652,654.715205261 "  />
<polygon style="stroke:rgb(0,0,0); stroke-width:4; fill:rgb(217,0,37); " points="471.184461652,717.069034334 489.184461652,748.24594887 525.184461652,748.24594887 543.184461652,717.069034334 525.184461652,685.892119797 489.184461652,685.892119797 "  />
<polygon style="stroke:rgb(0,0,0); stroke-width:4; fill:rgb(217,0,37); " points="363.184461652,592.361376189 381.184461652,623.538290725 417.184461652,623.538290725 435.184461652,592.361376189 417.184461652,561.184461652 381.184461652,561.184461652 "  />
<polygon style="stroke:rgb(0,0,0); stroke-width:4; fill:rgb(217,0,37); " points="417.184461652,436.476803507 435.184461652,467.653718044 471.184461652,467.653718044 489.184461652,436.476803507 471.184461652,405.299888971 435.184461652,405.299888971 "  />
<polygon style="stroke:rgb(0,0,0); stroke-width:4; fill:rgb(208,0,46); " points="633.184461652,436.476803507 651.184461652,467.653718044 687.184461652,467.653718044 705.184461652,436.476803507 687.184461652,405.299888971 651.184461652,405.299888971 "  />
<polygon style="stroke:rgb(0,0,0); stroke-width:4; fill:rgb(208,0,46); " points="687.184461652,592.361376189 705.184461652,623.538290725 741.184461652,623.538290725 759.184461652,592.361376189 741.184461652,561.184461652 705.184461652,561.184461652 "  />
<polygon style="stroke:rgb(0,0,0); stroke-width:4; fill:rgb(208,0,46); " points="579.184461652,717.069034334 597.184461652,748.24594887 633.184461652,748.24594887 651.184461652,717.069034334 633.184461652,685.892119797 597.184461652,685.892119797 "  />
<polygon style="stroke:rgb(0,0,0); stroke-width:4; fill:rgb(208,0,46); " points="417.184461652,685.892119797 435.184461652,717.069034334 471.184461652,717.069034334 489.184461652,685.892119797 471.184461652,654.715205261 435.184461652,654.715205261 "  />
<polygon style="stroke:rgb(0,0,0); stroke-width:4; fill:rgb(208,0,46); " points="363.184461652,530.007547116 381.184461652,561.184461652 417.184461652,561.184461652 435.184461652,530.007547116 417.184461652,498.83063258 381.184461652,498.83063258 "  />
<polygon style="stroke:rgb(0,0,0); stroke-width:4; fill:rgb(208,0,46); " points="471.184461652,405.299888971 489.184461652,436.476803507 525.184461652,436.476803507 543.184461652,405.299888971 525.184461652,374.122974435 489.184461652,374.122974435 "  />
<polygon style="stroke:rgb(0,0,0); stroke-width:4; fill:rgb(150,0,104); " points="579.184461652,342.946059899 597.184461652,374.122974435 633.184461652,374.122974435 651.184461652,342.946059899 633.184461652,311.769145362 597.184461652,311.769145362 "  />
<polygon style="stroke:rgb(0,0,0); stroke-width:4; fill:rgb(150,0,104); " points="741.184461652,498.83063258 759.184461652,530.007547116 795.184461652,530.007547116 813.184461652,498.83063258 795.184461652,467.653718044 759.184461652,467.653718044 "  />
<polygon style="stroke:rgb(0,0,0); stroke-width:4; fill:rgb(150,0,104); " points="687.184461652,717.069034334 705.184461652,748.24594887 741.184461652,748.24594887 759.184461652,717.069034334 741.184461652,685.892119797 705.184461652,685.892119797 "  />
<polygon style="stroke:rgb(0,0,0); stroke-width:4; fill:rgb(150,0,104); " points="471.184461652,779.422863406 489.184461652,810.599777942 525.184461652,810.599777942 543.184461652,779.422863406 525.184461652,748.24594887 489.184461652,748.24594887 "  />
<polygon style="stroke:rgb(0,0,0); stroke-width:4; fill:rgb(150,0,104); " points="309.184461652,623.538290725 327.184461652,654.715205261 363.184461652,654.715205261 381.184461652,623.538290725 363.184461652,592.361376189 327.184461652,592.361376189 "  />
<polygon style="stroke:rgb(0,0,0); stroke-width:4; fill:rgb(150,0,104); " points="363.184461652,405.299888971 381.184461652,436.476803507 417.184461652,436.476803507 435.184461652,405.299888971 417.184461652,374.122974435 381.184461652,374.122974435 "  />
<polygon style="stroke:rgb(0,0,0); stroke-width:4; fill:rgb(98,0,156); " points="633.184461652,374.122974435 651.184461652,405.299888971 687.184461652,405.299888971 705.184461652,374.122974435 687.184461652,342.946059899 651.184461652,342.946059899 "  />
<polygon style="stroke:rgb(0,0,0); stroke-width:4; fill:rgb(98,0,156); " points="741.184461652,561.184461652 759.184461652,592.361376189 795.184461652,592.361376189 813.184461652,561.184461652 795.184461652,530.007547116 759.184461652,530.007547116 "  />
<polygon style="stroke:rgb(0,0,0); stroke-width:4; fill:rgb(98,0,156); " points="633.184461652,748.24594887 651.184461652,779.422863406 687.184461652,779.422863406 705.184461652,748.24594887 687.184461652,717.069034334 651.184461652,717.069034334 "  />
<polygon style="stroke:rgb(0,0,0); stroke-width:4; fill:rgb(98,0,156); " points="417.184461652,748.24594887 435.184461652,779.422863406 471.184461652,779.422863406 489.184461652,748.24594887 471.184461652,717.069034334 435.184461652,717.069034334 "  />
<polygon style="stroke:rgb(0,0,0); stroke-width:4; fill:rgb(98,0,156); " points="309.184461652,561.184461652 327.184461652,592.361376189 363.184461652,592.361376189 381.184461652,561.184461652 363.184461652,530.007547116 327.184461652,530.007547116 "  />
<polygon style="stroke:rgb(0,0,0); stroke-width:4; fill:rgb(98,0,156); " points="417.184461652,374.122974435 435.184461652,405.299888971 471.184461652,405.299888971 489.184461652,374.122974435 471.184461652,342.946059899 435.184461652,342.946059899 "  />
<polygon style="stroke:rgb(0,0,0); stroke-width:4; fill:rgb(194,0,60); " points="687.184461652,405.299888971 705.184461652,436.476803507 741.184461652,436.476803507 759.184461652,405.299888971 741.184461652,374.122974435 705.184461652,374.122974435 "  />
<polygon style="stroke:rgb(0,0,0); stroke-width:4; fill:rgb(194,0,60); " points="741.184461652,623.538290725 759.184461652,654.715205261 795.184461652,654.715205261 813.184461652,623.538290725 795.184461652,592.361376189 759.184461652,592.361376189 "  />
<polygon style="stroke:rgb(0,0,0); stroke-width:4; fill:rgb(194,0,60); " points="579.184461652,779.422863406 597.184461652,810.599777942 633.184461652,810.599777942 651.184461652,779.422863406 633.184461652,748.24594887 597.184461652,748.24594887 "  />
<polygon style="stroke:rgb(0,0,0); stroke-width:4; fill:rgb(194,0,60); " points="363.184461652,717.069034334 381.184461652,748.24594887 417.184461652,748.24594887 435.184461652,717.069034334 417.184461652,685.892119797 381.184461652,685.892119797 "  />
<polygon style="stroke:rgb(0,0,0); stroke-width:4; fill:rgb(194,0,60); " points="309.184461652,498.83063258 327.184461652,530.007547116 363.184461652,530.007547116 381.184461652,498.83063258 363.184461652,467.653718044 327.184461652,467.653718044 "  />
<polygon style="stroke:rgb(0,0,0); stroke-width:4; fill:rgb(194,0,60); " points="471.184461652,342.946059899 489.184461652,374.122974435 525.184461652,374.122974435 543.184461652,342.946059899 525.184461652,311.769145362 489.184461652,311.769145362 "  />
<polygon style="stroke:rgb(0,0,0); stroke-width:4; fill:rgb(305,0,-50); " points="579.184461652,280.592230826 597.184461652,311.769145362 633.184461652,311.769145362 651.184461652,280.592230826 633.184461652,249.41531629 597.184461652,249.41531629 "  />
<polygon style="stroke:rgb(0,0,0); stroke-width:4; fill:rgb(305,0,-50); " points="795.184461652,467.653718044 813.184461652,498.83063258 849.184461652,498.83063258 867.184461652,467.653718044 849.184461652,436.476803507 813.184461652,436.476803507 "  />
<polygon style="stroke:rgb(0,0,0); stroke-width:4; fill:rgb(305,0,-50); " points="741.184461652,748.24594887 759.184461652,779.422863406 795.184461652,779.422863406 813.184461652,748.24594887 795.184461652,717.069034334 759.184461652,717.069034334 "  />
<polygon style="stroke:rgb(0,0,0); stroke-width:4; fill:rgb(305,0,-50); " points="471.184461652,841.776692478 489.184461652,872.953607015 525.184461652,872.953607015 543.184461652,841.776692478 525.184461652,810.599777942 489.184461652,810.599777942 "  />
<polygon style="stroke:rgb(0,0,0); stroke-width:4; fill:rgb(305,0,-50); " points="255.184461652,654.715205261 273.184461652,685.892119797 309.184461652,685.892119797 327.184461652,654.715205261 309.184461652,623.538290725 273.184461652,623.538290725 "  />
<polygon style="stroke:rgb(0,0,0); stroke-width:4; fill:rgb(305,0,-50); " points="309.184461652,374.122974435 327.184461652,405.299888971 363.184461652,405.299888971 381.184461652,374.122974435 363.184461652,342.946059899 327.184461652,342.946059899 "  />
<polygon style="stroke:rgb(0,0,0); stroke-width:4; fill:rgb(283,0,-28); " points="633.184461652,311.769145362 651.184461652,342.946059899 687.184461652,342.946059899 705.184461652,311.769145362 687.184461652,280.592230826 651.184461652,280.592230826 "  />
<polygon style="stroke:rgb(0,0,0); stroke-width:4; fill:rgb(283,0,-28); " points="795.184461652,530.007547116 813.184461652,561.184461652 849.184461652,561.184461652 867.184461652,530.007547116 849.184461652,498.83063258 813.184461652,498.83063258 "  />
<polygon style="stroke:rgb(0,0,0); stroke-width:4; fill:rgb(283,0,-28); " points="687.184461652,779.422863406 705.184461652,810.599777942 741.184461652,810.599777942 759.184461652,779.422863406 741.184461652,748.24594887 705.184461652,748.24594887 "  />
<polygon style="stroke:rgb(0,0,0); stroke-width:4; fill:rgb(283,0,-28); " points="417.184461652,810.599777942 435.184461652,841.776692478 471.184461652,841.776692478 489.184461652,810.599777942 471.184461652,779.422863406 435.184461652,779.422863406 "  />
<polygon style="stroke:rgb(0,0,0); stroke-width:4; fill:rgb(283,0,-28); " points="255.184461652,592.361376189 273.184461652,623.538290725 309.184461652,623.538290725 327.184461652,592.361376189 309.184461652,561.184461652 273.184461652,561.184461652 "  />
<polygon style="stroke:rgb(0,0,0); stroke-width:4; fill:rgb(283,0,-28); " points="363.184461652,342.946059899 381.184461652,374.122974435 417.184461652,374.122974435 435.184461652,342.946059899 417.184461652,311.769145362 381.184461652,311.769145362 "  />
<polygon style="stroke:rgb(0,0,0); stroke-width:4; fill:rgb(227,0,27); " points="687.184461652,342.946059899 705.184461652,374.122974435 741.184461652,374.122974435 759.184461652,342.946059899 741.184461652,311.769145362 705.184461652,311.769145362 "  />
<polygon style="stroke:rgb(0,0,0); stroke-width:4; fill:rgb(227,0,27); " points="795.184461652,592.361376189 813.184461652,623.538290725 849.184461652,623.538290725 867.184461652,592.361376189 849.184461652,561.184461652 813.184461652,561.184461652 "  />
<polygon style="stroke:rgb(0,0,0); stroke-width:4; fill:rgb(227,0,27); " points="633.184461652,810.599777942 651.184461652,841.776692478 687.184461652,841.776692478 705.184461652,810.599777942 687.184461652,779.422863406 651.184461652,779.422863406 "  />
<polygon style="stroke:rgb(0,0,0); stroke-width:4; fill:rgb(227,0,27); " points="363.184461652,779.422863406 381.184461652,810.599777942 417.184461652,810.599777942 435.184461652,779.422863406 417.184461652,748.24594887 381.184461652,748.24594887 "  />
<polygon style="stroke:rgb(0,0,0); stroke-width:4; fill:rgb(227,0,27); " points="255.184461652,530.007547116 273.184461652,561.184461652 309.184461652,561.184461652 327.184461652,530.007547116 309.184461652,498.83063258 273.184461652,498.83063258 "  />
<polygon style="stroke:rgb(0,0,0); stroke-width:4; fill:rgb(227,0,27); " points="417.184461652,311.769145362 435.184461652,342.946059899 471.184461652,342.946059899 489.184461652,311.769145362 471.184461652,280.592230826 435.184461652,280.592230826 "  />
<polygon style="stroke:rgb(0,0,0); stroke-width:4; fill:rgb(156,0,98); " points="741.184461652,374.122974435 759.184461652,405.299888971 795.184461652,405.299888971 813.184461652,374.122974435 795.184461652,342.946059899 759.184461652,342.946059899 "  />
<polygon style="stroke:rgb(0,0,0); stroke-width:4; fill:rgb(156,0,98); " points="795.184461652,654.715205261 813.184461652,685.892119797 849.184461652,685.892119797 867.184461652,654.715205261 849.184461652,623.538290725 813.184461652,623.538290725 "  />
<polygon style="stroke:rgb(0,0,0); stroke-width:4; fill:rgb(156,0,98); " points="579.184461652,841.776692478 597.184461652,872.953607015 633.184461652,872.953607015 651.184461652,841.776692478 633.184461652,810.599777942 597.184461652,810.599777942 "  />
<polygon style="stroke:rgb(0,0,0); stroke-width:4; fill:rgb(156,0,98); " points="309.184461652,748.24594887 327.184461652,779.422863406 363.184461652,779.422863406 381.184461652,748.24594887 363.184461652,717.069034334 327.184461652,717.069034334 "  />
<polygon style="stroke:rgb(0,0,0); stroke-width:4; fill:rgb(156,0,98); " points="255.184461652,467.653718044 273.184461652,498.83063258 309.184461652,498.83063258 327.184461652,467.653718044 309.184461652,436.476803507 273.184461652,436.476803507 "  />
<polygon style="stroke:rgb(0,0,0); stroke-width:4; fill:rgb(156,0,98); " points="471.184461652,280.592230826 489.184461652,311.769145362 525.184461652,311.769145362 543.184461652,280.592230826 525.184461652,249.41531629 489.184461652,249.41531629 "  />
<polygon style="stroke:rgb(0,0,0); stroke-width:4; fill:rgb(95,0,159); " points="579.184461652,218.238401754 597.184461652,249.41531629 633.184461652,249.41531629 651.184461652,218.238401754 633.184461652,187.061487217 597.184461652,187.061487217 "  />
<polygon style="stroke:rgb(0,0,0); stroke-width:4; fill:rgb(95,0,159); " points="849.184461652,436.476803507 867.184461652,467.653718044 903.184461652,467.653718044 921.184461652,436.476803507 903.184461652,405.299888971 867.184461652,405.299888971 "  />
<polygon style="stroke:rgb(0,0,0); stroke-width:4; fill:rgb(95,0,159); " points="795.184461652,779.422863406 813.184461652,810.599777942 849.184461652,810.599777942 867.184461652,779.422863406 849.184461652,748.24594887 813.184461652,748.24594887 "  />
<polygon style="stroke:rgb(0,0,0); stroke-width:4; fill:rgb(95,0,159); " points="471.184461652,904.130521551 489.184461652,935.307436087 525.184461652,935.307436087 543.184461652,904.130521551 525.184461652,872.953607015 489.184461652,872.953607015 "  />
<polygon style="stroke:rgb(0,0,0); stroke-width:4; fill:rgb(95,0,159); " points="201.184461652,685.892119797 219.184461652,717.069034334 255.184461652,717.069034334 273.184461652,685.892119797 255.184461652,654.715205261 219.184461652,654.715205261 "  />
<polygon style="stroke:rgb(0,0,0); stroke-width:4; fill:rgb(95,0,159); " points="255.184461652,342.946059899 273.184461652,374.122974435 309.184461652,374.122974435 327.184461652,342.946059899 309.184461652,311.769145362 273.184461652,311.769145362 "  />
</svg>
