<?xml version="1.0" encoding="ISO-8859-1" standalone="no"?><svg xmlns="http://www.w3.org/2000/svg" version="1.1" xmlns:xlink="http://www.w3.org/1999/xlink"  >
<polygon style="stroke:rgb(0,0,0); stroke-width:4; fill:rgb(206,0,48); " points="618.715205261,654.715205261 636.715205261,685.892119797 672.715205261,685.892119797 690.715205261,654.715205261 672.715205261,623.538290725 636.715205261,623.538290725 "  />
<polygon style="stroke:rgb(0,0,0); stroke-width:4; fill:rgb(145,0,109); " points="618.715205261,592.361376189 636.715205261,623.538290725 672.715205261,623.538290725 690.715205261,592.361376189 672.715205261,561.184461652 636.715205261,561.184461652 "  />
<polygon style="stroke:rgb(0,0,0); stroke-width:4; fill:rgb(145,0,109); " points="672.715205261,623.538290725 690.715205261,654.715205261 726.715205261,654.715205261 744.715205261,623.538290725 726.715205261,592.361376189 690.715205261,592.361376189 "  />
<polygon style="stroke:rgb(0,0,0); stroke-width:4; fill:rgb(145,0,109); " points="672.715205261,685.892119797 690.715205261,717.069034334 726.715205261,717.069034334 744.715205261,685.892119797 726.715205261,654.715205261 690.715205261,654.715205261 "  />
<polygon style="stroke:rgb(0,0,0); stroke-width:4; fill:rgb(145,0,109); " points="618.715205261,717.069034334 636.715205261,748.24594887 672.715205261,748.24594887 690.715205261,717.069034334 672.715205261,685.892119797 636.715205261,685.892119797 "  />
<polygon style="stroke:rgb(0,0,0); stroke-width:4; fill:rgb(145,0,109); " points="564.715205261,685.892119797 582.715205261,717.069034334 618.715205261,717.069034334 636.715205261,685.892119797 618.715205261,654.715205261 582.715205261,654.715205261 "  />
<polygon style="stroke:rgb(0,0,0); stroke-width:4; fill:rgb(145,0,109); " points="564.715205261,623.538290725 582.715205261,654.715205261 618.715205261,654.715205261 636.715205261,623.538290725 618.715205261,592.361376189 582.715205261,592.361376189 "  />
<polygon style="stroke:rgb(0,0,0); stroke-width:4; fill:rgb(147,0,107); " points="618.715205261,530.007547116 636.715205261,561.184461652 672.715205261,561.184461652 690.715205261,530.007547116 672.715205261,498.83063258 636.715205261,498.83063258 "  />
<polygon style="stroke:rgb(0,0,0); stroke-width:4; fill:rgb(147,0,107); " points="726.715205261,592.361376189 744.715205261,623.538290725 780.715205261,623.538290725 798.715205261,592.361376189 780.715205261,561.184461652 744.715205261,561.184461652 "  />
<polygon style="stroke:rgb(0,0,0); stroke-width:4; fill:rgb(147,0,107); " points="726.715205261,717.069034334 744.715205261,748.24594887 780.715205261,748.24594887 798.715205261,717.069034334 780.715205261,685.892119797 744.715205261,685.892119797 "  />
<polygon style="stroke:rgb(0,0,0); stroke-width:4; fill:rgb(147,0,107); " points="618.715205261,779.422863406 636.715205261,810.599777942 672.715205261,810.599777942 690.715205261,779.422863406 672.715205261,748.24594887 636.715205261,748.24594887 "  />
<polygon style="stroke:rgb(0,0,0); stroke-width:4; fill:rgb(147,0,107); " points="510.715205261,717.069034334 528.715205261,748.24594887 564.715205261,748.24594887 582.715205261,717.069034334 564.715205261,685.892119797 528.715205261,685.892119797 "  />
<polygon style="stroke:rgb(0,0,0); stroke-width:4; fill:rgb(147,0,107); " points="510.715205261,592.361376189 528.715205261,623.538290725 564.715205261,623.538290725 582.715205261,592.361376189 564.715205261,561.184461652 528.715205261,561.184461652 "  />
<polygon style="stroke:rgb(0,0,0); stroke-width:4; fill:rgb(210,0,44); " points="618.715205261,467.653718044 636.715205261,498.83063258 672.715205261,498.83063258 690.715205261,467.653718044 672.715205261,436.476803507 636.715205261,436.476803507 "  />
<polygon style="stroke:rgb(0,0,0); stroke-width:4; fill:rgb(210,0,44); " points="780.715205261,561.184461652 798.715205261,592.361376189 834.715205261,592.361376189 852.715205261,561.184461652 834.715205261,530.007547116 798.715205261,530.007547116 "  />
<polygon style="stroke:rgb(0,0,0); stroke-width:4; fill:rgb(210,0,44); " points="780.715205261,748.24594887 798.715205261,779.422863406 834.715205261,779.422863406 852.715205261,748.24594887 834.715205261,717.069034334 798.715205261,717.069034334 "  />
<polygon style="stroke:rgb(0,0,0); stroke-width:4; fill:rgb(210,0,44); " points="618.715205261,841.776692478 636.715205261,872.953607015 672.715205261,872.953607015 690.715205261,841.776692478 672.715205261,810.599777942 636.715205261,810.599777942 "  />
<polygon style="stroke:rgb(0,0,0); stroke-width:4; fill:rgb(210,0,44); " points="456.715205261,748.24594887 474.715205261,779.422863406 510.715205261,779.422863406 528.715205261,748.24594887 510.715205261,717.069034334 474.715205261,717.069034334 "  />
<polygon style="stroke:rgb(0,0,0); stroke-width:4; fill:rgb(210,0,44); " points="456.715205261,561.184461652 474.715205261,592.361376189 510.715205261,592.361376189 528.715205261,561.184461652 510.715205261,530.007547116 474.715205261,530.007547116 "  />
<polygon style="stroke:rgb(0,0,0); stroke-width:4; fill:rgb(131,0,123); " points="618.715205261,405.299888971 636.715205261,436.476803507 672.715205261,436.476803507 690.715205261,405.299888971 672.715205261,374.122974435 636.715205261,374.122974435 "  />
<polygon style="stroke:rgb(0,0,0); stroke-width:4; fill:rgb(131,0,123); " points="834.715205261,530.007547116 852.715205261,561.184461652 888.715205261,561.184461652 906.715205261,530.007547116 888.715205261,498.83063258 852.715205261,498.83063258 "  />
<polygon style="stroke:rgb(0,0,0); stroke-width:4; fill:rgb(131,0,123); " points="834.715205261,779.422863406 852.715205261,810.599777942 888.715205261,810.599777942 906.715205261,779.422863406 888.715205261,748.24594887 852.715205261,748.24594887 "  />
<polygon style="stroke:rgb(0,0,0); stroke-width:4; fill:rgb(131,0,123); " points="618.715205261,904.130521551 636.715205261,935.307436087 672.715205261,935.307436087 690.715205261,904.130521551 672.715205261,872.953607015 636.715205261,872.953607015 "  />
<polygon style="stroke:rgb(0,0,0); stroke-width:4; fill:rgb(131,0,123); " points="402.715205261,779.422863406 420.715205261,810.599777942 456.715205261,810.599777942 474.715205261,779.422863406 456.715205261,748.24594887 420.715205261,748.24594887 "  />
<polygon style="stroke:rgb(0,0,0); stroke-width:4; fill:rgb(131,0,123); " points="402.715205261,530.007547116 420.715205261,561.184461652 456.715205261,561.184461652 474.715205261,530.007547116 456.715205261,498.83063258 420.715205261,498.83063258 "  />
<polygon style="stroke:rgb(0,0,0); stroke-width:4; fill:rgb(191,0,63); " points="618.715205261,342.946059899 636.715205261,374.122974435 672.715205261,374.122974435 690.715205261,342.946059899 672.715205261,311.769145362 636.715205261,311.769145362 "  />
<polygon style="stroke:rgb(0,0,0); stroke-width:4; fill:rgb(191,0,63); " points="888.715205261,498.83063258 906.715205261,530.007547116 942.715205261,530.007547116 960.715205261,498.83063258 942.715205261,467.653718044 906.715205261,467.653718044 "  />
<polygon style="stroke:rgb(0,0,0); stroke-width:4; fill:rgb(191,0,63); " points="888.715205261,810.599777942 906.715205261,841.776692478 942.715205261,841.776692478 960.715205261,810.599777942 942.715205261,779.422863406 906.715205261,779.422863406 "  />
<polygon style="stroke:rgb(0,0,0); stroke-width:4; fill:rgb(191,0,63); " points="618.715205261,966.484350623 636.715205261,997.66126516 672.715205261,997.66126516 690.715205261,966.484350623 672.715205261,935.307436087 636.715205261,935.307436087 "  />
<polygon style="stroke:rgb(0,0,0); stroke-width:4; fill:rgb(191,0,63); " points="348.715205261,810.599777942 366.715205261,841.776692478 402.715205261,841.776692478 420.715205261,810.599777942 402.715205261,779.422863406 366.715205261,779.422863406 "  />
<polygon style="stroke:rgb(0,0,0); stroke-width:4; fill:rgb(191,0,63); " points="348.715205261,498.83063258 366.715205261,530.007547116 402.715205261,530.007547116 420.715205261,498.83063258 402.715205261,467.653718044 366.715205261,467.653718044 "  />
<polygon style="stroke:rgb(0,0,0); stroke-width:4; fill:rgb(181,0,73); " points="618.715205261,280.592230826 636.715205261,311.769145362 672.715205261,311.769145362 690.715205261,280.592230826 672.715205261,249.41531629 636.715205261,249.41531629 "  />
<polygon style="stroke:rgb(0,0,0); stroke-width:4; fill:rgb(181,0,73); " points="942.715205261,467.653718044 960.715205261,498.83063258 996.715205261,498.83063258 1014.71520526,467.653718044 996.715205261,436.476803507 960.715205261,436.476803507 "  />
<polygon style="stroke:rgb(0,0,0); stroke-width:4; fill:rgb(181,0,73); " points="942.715205261,841.776692478 960.715205261,872.953607015 996.715205261,872.953607015 1014.71520526,841.776692478 996.715205261,810.599777942 960.715205261,810.599777942 "  />
<polygon style="stroke:rgb(0,0,0); stroke-width:4; fill:rgb(181,0,73); " points="618.715205261,1028.8381797 636.715205261,1060.01509423 672.715205261,1060.01509423 690.715205261,1028.8381797 672.715205261,997.66126516 636.715205261,997.66126516 "  />
<polygon style="stroke:rgb(0,0,0); stroke-width:4; fill:rgb(181,0,73); " points="294.715205261,841.776692478 312.715205261,872.953607015 348.715205261,872.953607015 366.715205261,841.776692478 348.715205261,810.599777942 312.715205261,810.599777942 "  />
<polygon style="stroke:rgb(0,0,0); stroke-width:4; fill:rgb(181,0,73); " points="294.715205261,467.653718044 312.715205261,498.83063258 348.715205261,498.83063258 366.715205261,467.653718044 348.715205261,436.476803507 312.715205261,436.476803507 "  />
<polygon style="stroke:rgb(0,0,0); stroke-width:4; fill:rgb(301,0,-46); " points="618.715205261,218.238401754 636.715205261,249.41531629 672.715205261,249.41531629 690.715205261,218.238401754 672.715205261,187.061487217 636.715205261,187.061487217 "  />
<polygon style="stroke:rgb(0,0,0); stroke-width:4; fill:rgb(301,0,-46); " points="996.715205261,436.476803507 1014.71520526,467.653718044 1050.71520526,467.653718044 1068.71520526,436.476803507 1050.71520526,405.299888971 1014.71520526,405.299888971 "  />
<polygon style="stroke:rgb(0,0,0); stroke-width:4; fill:rgb(301,0,-46); " points="996.715205261,872.953607015 1014.71520526,904.130521551 1050.71520526,904.130521551 1068.71520526,872.953607015 1050.71520526,841.776692478 1014.71520526,841.776692478 "  />
<polygon style="stroke:rgb(0,0,0); stroke-width:4; fill:rgb(301,0,-46); " points="618.715205261,1091.19200877 636.715205261,1122.3689233 672.715205261,1122.3689233 690.715205261,1091.19200877 672.715205261,1060.01509423 636.715205261,1060.01509423 "  />
<polygon style="stroke:rgb(0,0,0); stroke-width:4; fill:rgb(301,0,-46); " points="240.715205261,872.953607015 258.715205261,904.130521551 294.715205261,904.130521551 312.715205261,872.953607015 294.715205261,841.776692478 258.715205261,841.776692478 "  />
<polygon style="stroke:rgb(0,0,0); stroke-width:4; fill:rgb(301,0,-46); " points="240.715205261,436.476803507 258.715205261,467.653718044 294.715205261,467.653718044 312.715205261,436.476803507 294.715205261,405.299888971 258.715205261,405.299888971 "  />
<polygon style="stroke:rgb(0,0,0); stroke-width:4; fill:rgb(207,0,47); " points="672.715205261,561.184461652 690.715205261,592.361376189 726.715205261,592.361376189 744.715205261,561.184461652 726.715205261,530.007547116 690.715205261,530.007547116 "  />
<polygon style="stroke:rgb(0,0,0); stroke-width:4; fill:rgb(207,0,47); " points="726.715205261,654.715205261 744.715205261,685.892119797 780.715205261,685.892119797 798.715205261,654.715205261 780.715205261,623.538290725 744.715205261,623.538290725 "  />
<polygon style="stroke:rgb(0,0,0); stroke-width:4; fill:rgb(207,0,47); " points="672.715205261,748.24594887 690.715205261,779.422863406 726.715205261,779.422863406 744.715205261,748.24594887 726.715205261,717.069034334 690.715205261,717.069034334 "  />
<polygon style="stroke:rgb(0,0,0); stroke-width:4; fill:rgb(207,0,47); " points="564.715205261,748.24594887 582.715205261,779.422863406 618.715205261,779.422863406 636.715205261,748.24594887 618.715205261,717.069034334 582.715205261,717.069034334 "  />
<polygon style="stroke:rgb(0,0,0); stroke-width:4; fill:rgb(207,0,47); " points="510.715205261,654.715205261 528.715205261,685.892119797 564.715205261,685.892119797 582.715205261,654.715205261 564.715205261,623.538290725 528.715205261,623.538290725 "  />
<polygon style="stroke:rgb(0,0,0); stroke-width:4; fill:rgb(207,0,47); " points="564.715205261,561.184461652 582.715205261,592.361376189 618.715205261,592.361376189 636.715205261,561.184461652 618.715205261,530.007547116 582.715205261,530.007547116 "  />
<polygon style="stroke:rgb(0,0,0); stroke-width:4; fill:rgb(142,0,112); " points="672.715205261,498.83063258 690.715205261,530.007547116 726.715205261,530.007547116 744.715205261,498.83063258 726.715205261,467.653718044 690.715205261,467.653718044 "  />
<polygon style="stroke:rgb(0,0,0); stroke-width:4; fill:rgb(142,0,112); " points="780.715205261,623.538290725 798.715205261,654.715205261 834.715205261,654.715205261 852.715205261,623.538290725 834.715205261,592.361376189 798.715205261,592.361376189 "  />
<polygon style="stroke:rgb(0,0,0); stroke-width:4; fill:rgb(142,0,112); " points="726.715205261,779.422863406 744.715205261,810.599777942 780.715205261,810.599777942 798.715205261,779.422863406 780.715205261,748.24594887 744.715205261,748.24594887 "  />
<polygon style="stroke:rgb(0,0,0); stroke-width:4; fill:rgb(142,0,112); " points="564.715205261,810.599777942 582.715205261,841.776692478 618.715205261,841.776692478 636.715205261,810.599777942 618.715205261,779.422863406 582.715205261,779.422863406 "  />
<polygon style="stroke:rgb(0,0,0); stroke-width:4; fill:rgb(142,0,112); " points="456.715205261,685.892119797 474.715205261,717.069034334 510.715205261,717.069034334 528.715205261,685.892119797 510.715205261,654.715205261 474.715205261,654.715205261 "  />
<polygon style="stroke:rgb(0,0,0); stroke-width:4; fill:rgb(142,0,112); " points="510.715205261,530.007547116 528.715205261,561.184461652 564.715205261,561.184461652 582.715205261,530.007547116 564.715205261,498.83063258 528.715205261,498.83063258 "  />
<polygon style="stroke:rgb(0,0,0); stroke-width:4; fill:rgb(142,0,112); " points="726.715205261,530.007547116 744.715205261,561.184461652 780.715205261,561.184461652 798.715205261,530.007547116 780.715205261,498.83063258 744.715205261,498.83063258 "  />
<polygon style="stroke:rgb(0,0,0); stroke-width:4; fill:rgb(142,0,112); " points="780.715205261,685.892119797 798.715205261,717.069034334 834.715205261,717.069034334 852.715205261,685.892119797 834.715205261,654.715205261 798.715205261,654.715205261 "  />
<polygon style="stroke:rgb(0,0,0); stroke-width:4; fill:rgb(142,0,112); " points="672.715205261,810.599777942 690.715205261,841.776692478 726.715205261,841.776692478 744.715205261,810.599777942 726.715205261,779.422863406 690.715205261,779.422863406 "  />
<polygon style="stroke:rgb(0,0,0); stroke-width:4; fill:rgb(142,0,112); " points="510.715205261,779.422863406 528.715205261,810.599777942 564.715205261,810.599777942 582.715205261,779.422863406 564.715205261,748.24594887 528.715205261,748.24594887 "  />
<polygon style="stroke:rgb(0,0,0); stroke-width:4; fill:rgb(142,0,112); " points="456.715205261,623.538290725 474.715205261,654.715205261 510.715205261,654.715205261 528.715205261,623.538290725 510.715205261,592.361376189 474.715205261,592.361376189 "  />
<polygon style="stroke:rgb(0,0,0); stroke-width:4; fill:rgb(142,0,112); " points="564.715205261,498.83063258 582.715205261,530.007547116 618.715205261,530.007547116 636.715205261,498.83063258 618.715205261,467.653718044 582.715205261,467.653718044 "  />
<polygon style="stroke:rgb(0,0,0); stroke-width:4; fill:rgb(154,0,100); " points="672.715205261,436.476803507 690.715205261,467.653718044 726.715205261,467.653718044 744.715205261,436.476803507 726.715205261,405.299888971 690.715205261,405.299888971 "  />
<polygon style="stroke:rgb(0,0,0); stroke-width:4; fill:rgb(154,0,100); " points="834.715205261,592.361376189 852.715205261,623.538290725 888.715205261,623.538290725 906.715205261,592.361376189 888.715205261,561.184461652 852.715205261,561.184461652 "  />
<polygon style="stroke:rgb(0,0,0); stroke-width:4; fill:rgb(154,0,100); " points="780.715205261,810.599777942 798.715205261,841.776692478 834.715205261,841.776692478 852.715205261,810.599777942 834.715205261,779.422863406 798.715205261,779.422863406 "  />
<polygon style="stroke:rgb(0,0,0); stroke-width:4; fill:rgb(154,0,100); " points="564.715205261,872.953607015 582.715205261,904.130521551 618.715205261,904.130521551 636.715205261,872.953607015 618.715205261,841.776692478 582.715205261,841.776692478 "  />
<polygon style="stroke:rgb(0,0,0); stroke-width:4; fill:rgb(154,0,100); " points="402.715205261,717.069034334 420.715205261,748.24594887 456.715205261,748.24594887 474.715205261,717.069034334 456.715205261,685.892119797 420.715205261,685.892119797 "  />
<polygon style="stroke:rgb(0,0,0); stroke-width:4; fill:rgb(154,0,100); " points="456.715205261,498.83063258 474.715205261,530.007547116 510.715205261,530.007547116 528.715205261,498.83063258 510.715205261,467.653718044 474.715205261,467.653718044 "  />
<polygon style="stroke:rgb(0,0,0); stroke-width:4; fill:rgb(154,0,100); " points="780.715205261,498.83063258 798.715205261,530.007547116 834.715205261,530.007547116 852.715205261,498.83063258 834.715205261,467.653718044 798.715205261,467.653718044 "  />
<polygon style="stroke:rgb(0,0,0); stroke-width:4; fill:rgb(154,0,100); " points="834.715205261,717.069034334 852.715205261,748.24594887 888.715205261,748.24594887 906.715205261,717.069034334 888.715205261,685.892119797 852.715205261,685.892119797 "  />
<polygon style="stroke:rgb(0,0,0); stroke-width:4; fill:rgb(154,0,100); " points="672.715205261,872.953607015 690.715205261,904.130521551 726.715205261,904.130521551 744.715205261,872.953607015 726.715205261,841.776692478 690.715205261,841.776692478 "  />
<polygon style="stroke:rgb(0,0,0); stroke-width:4; fill:rgb(154,0,100); " points="456.715205261,810.599777942 474.715205261,841.776692478 510.715205261,841.776692478 528.715205261,810.599777942 510.715205261,779.422863406 474.715205261,779.422863406 "  />
<polygon style="stroke:rgb(0,0,0); stroke-width:4; fill:rgb(154,0,100); " points="402.715205261,592.361376189 420.715205261,623.538290725 456.715205261,623.538290725 474.715205261,592.361376189 456.715205261,561.184461652 420.715205261,561.184461652 "  />
<polygon style="stroke:rgb(0,0,0); stroke-width:4; fill:rgb(154,0,100); " points="564.715205261,436.476803507 582.715205261,467.653718044 618.715205261,467.653718044 636.715205261,436.476803507 618.715205261,405.299888971 582.715205261,405.299888971 "  />
<polygon style="stroke:rgb(0,0,0); stroke-width:4; fill:rgb(212,0,42); " points="726.715205261,467.653718044 744.715205261,498.83063258 780.715205261,498.83063258 798.715205261,467.653718044 780.715205261,436.476803507 744.715205261,436.476803507 "  />
<polygon style="stroke:rgb(0,0,0); stroke-width:4; fill:rgb(212,0,42); " points="834.715205261,654.715205261 852.715205261,685.892119797 888.715205261,685.892119797 906.715205261,654.715205261 888.715205261,623.538290725 852.715205261,623.538290725 "  />
<polygon style="stroke:rgb(0,0,0); stroke-width:4; fill:rgb(212,0,42); " points="726.715205261,841.776692478 744.715205261,872.953607015 780.715205261,872.953607015 798.715205261,841.776692478 780.715205261,810.599777942 744.715205261,810.599777942 "  />
<polygon style="stroke:rgb(0,0,0); stroke-width:4; fill:rgb(212,0,42); " points="510.715205261,841.776692478 528.715205261,872.953607015 564.715205261,872.953607015 582.715205261,841.776692478 564.715205261,810.599777942 528.715205261,810.599777942 "  />
<polygon style="stroke:rgb(0,0,0); stroke-width:4; fill:rgb(212,0,42); " points="402.715205261,654.715205261 420.715205261,685.892119797 456.715205261,685.892119797 474.715205261,654.715205261 456.715205261,623.538290725 420.715205261,623.538290725 "  />
<polygon style="stroke:rgb(0,0,0); stroke-width:4; fill:rgb(212,0,42); " points="510.715205261,467.653718044 528.715205261,498.83063258 564.715205261,498.83063258 582.715205261,467.653718044 564.715205261,436.476803507 528.715205261,436.476803507 "  />
<polygon style="stroke:rgb(0,0,0); stroke-width:4; fill:rgb(212,0,42); " points="672.715205261,374.122974435 690.715205261,405.299888971 726.715205261,405.299888971 744.715205261,374.122974435 726.715205261,342.946059899 690.715205261,342.946059899 "  />
<polygon style="stroke:rgb(0,0,0); stroke-width:4; fill:rgb(212,0,42); " points="888.715205261,561.184461652 906.715205261,592.361376189 942.715205261,592.361376189 960.715205261,561.184461652 942.715205261,530.007547116 906.715205261,530.007547116 "  />
<polygon style="stroke:rgb(0,0,0); stroke-width:4; fill:rgb(212,0,42); " points="834.715205261,841.776692478 852.715205261,872.953607015 888.715205261,872.953607015 906.715205261,841.776692478 888.715205261,810.599777942 852.715205261,810.599777942 "  />
<polygon style="stroke:rgb(0,0,0); stroke-width:4; fill:rgb(212,0,42); " points="564.715205261,935.307436087 582.715205261,966.484350623 618.715205261,966.484350623 636.715205261,935.307436087 618.715205261,904.130521551 582.715205261,904.130521551 "  />
<polygon style="stroke:rgb(0,0,0); stroke-width:4; fill:rgb(212,0,42); " points="348.715205261,748.24594887 366.715205261,779.422863406 402.715205261,779.422863406 420.715205261,748.24594887 402.715205261,717.069034334 366.715205261,717.069034334 "  />
<polygon style="stroke:rgb(0,0,0); stroke-width:4; fill:rgb(212,0,42); " points="402.715205261,467.653718044 420.715205261,498.83063258 456.715205261,498.83063258 474.715205261,467.653718044 456.715205261,436.476803507 420.715205261,436.476803507 "  />
<polygon style="stroke:rgb(0,0,0); stroke-width:4; fill:rgb(212,0,42); " points="834.715205261,467.653718044 852.715205261,498.83063258 888.715205261,498.83063258 906.715205261,467.653718044 888.715205261,436.476803507 852.715205261,436.476803507 "  />
<polygon style="stroke:rgb(0,0,0); stroke-width:4; fill:rgb(212,0,42); " points="888.715205261,748.24594887 906.715205261,779.422863406 942.715205261,779.422863406 960.715205261,748.24594887 942.715205261,717.069034334 906.715205261,717.069034334 "  />
<polygon style="stroke:rgb(0,0,0); stroke-width:4; fill:rgb(212,0,42); " points="672.715205261,935.307436087 690.715205261,966.484350623 726.715205261,966.484350623 744.715205261,935.307436087 726.715205261,904.130521551 690.715205261,904.130521551 "  />
<polygon style="stroke:rgb(0,0,0); stroke-width:4; fill:rgb(212,0,42); " points="402.715205261,841.776692478 420.715205261,872.953607015 456.715205261,872.953607015 474.715205261,841.776692478 456.715205261,810.599777942 420.715205261,810.599777942 "  />
<polygon style="stroke:rgb(0,0,0); stroke-width:4; fill:rgb(212,0,42); " points="348.715205261,561.184461652 366.715205261,592.361376189 402.715205261,592.361376189 420.715205261,561.184461652 402.715205261,530.007547116 366.715205261,530.007547116 "  />
<polygon style="stroke:rgb(0,0,0); stroke-width:4; fill:rgb(212,0,42); " points="564.715205261,374.122974435 582.715205261,405.299888971 618.715205261,405.299888971 636.715205261,374.122974435 618.715205261,342.946059899 582.715205261,342.946059899 "  />
<polygon style="stroke:rgb(0,0,0); stroke-width:4; fill:rgb(138,0,116); " points="726.715205261,405.299888971 744.715205261,436.476803507 780.715205261,436.476803507 798.715205261,405.299888971 780.715205261,374.122974435 744.715205261,374.122974435 "  />
<polygon style="stroke:rgb(0,0,0); stroke-width:4; fill:rgb(138,0,116); " points="888.715205261,623.538290725 906.715205261,654.715205261 942.715205261,654.715205261 960.715205261,623.538290725 942.715205261,592.361376189 906.715205261,592.361376189 "  />
<polygon style="stroke:rgb(0,0,0); stroke-width:4; fill:rgb(138,0,116); " points="780.715205261,872.953607015 798.715205261,904.130521551 834.715205261,904.130521551 852.715205261,872.953607015 834.715205261,841.776692478 798.715205261,841.776692478 "  />
<polygon style="stroke:rgb(0,0,0); stroke-width:4; fill:rgb(138,0,116); " points="510.715205261,904.130521551 528.715205261,935.307436087 564.715205261,935.307436087 582.715205261,904.130521551 564.715205261,872.953607015 528.715205261,872.953607015 "  />
<polygon style="stroke:rgb(0,0,0); stroke-width:4; fill:rgb(138,0,116); " points="348.715205261,685.892119797 366.715205261,717.069034334 402.715205261,717.069034334 420.715205261,685.892119797 402.715205261,654.715205261 366.715205261,654.715205261 "  />
<polygon style="stroke:rgb(0,0,0); stroke-width:4; fill:rgb(138,0,116); " points="456.715205261,436.476803507 474.715205261,467.653718044 510.715205261,467.653718044 528.715205261,436.476803507 510.715205261,405.299888971 474.715205261,405.299888971 "  />
<polygon style="stroke:rgb(0,0,0); stroke-width:4; fill:rgb(138,0,116); " points="780.715205261,436.476803507 798.715205261,467.653718044 834.715205261,467.653718044 852.715205261,436.476803507 834.715205261,405.299888971 798.715205261,405.299888971 "  />
<polygon style="stroke:rgb(0,0,0); stroke-width:4; fill:rgb(138,0,116); " points="888.715205261,685.892119797 906.715205261,717.069034334 942.715205261,717.069034334 960.715205261,685.892119797 942.715205261,654.715205261 906.715205261,654.715205261 "  />
<polygon style="stroke:rgb(0,0,0); stroke-width:4; fill:rgb(138,0,116); " points="726.715205261,904.130521551 744.715205261,935.307436087 780.715205261,935.307436087 798.715205261,904.130521551 780.715205261,872.953607015 744.715205261,872.953607015 "  />
<polygon style="stroke:rgb(0,0,0); stroke-width:4; fill:rgb(138,0,116); " points="456.715205261,872.953607015 474.715205261,904.130521551 510.715205261,904.130521551 528.715205261,872.953607015 510.715205261,841.776692478 474.715205261,841.776692478 "  />
<polygon style="stroke:rgb(0,0,0); stroke-width:4; fill:rgb(138,0,116); " points="348.715205261,623.538290725 366.715205261,654.715205261 402.715205261,654.715205261 420.715205261,623.538290725 402.715205261,592.361376189 366.715205261,592.361376189 "  />
<polygon style="stroke:rgb(0,0,0); stroke-width:4; fill:rgb(138,0,116); " points="510.715205261,405.299888971 528.715205261,436.476803507 564.715205261,436.476803507 582.715205261,405.299888971 564.715205261,374.122974435 528.715205261,374.122974435 "  />
<polygon style="stroke:rgb(0,0,0); stroke-width:4; fill:rgb(126,0,128); " points="672.715205261,311.769145362 690.715205261,342.946059899 726.715205261,342.946059899 744.715205261,311.769145362 726.715205261,280.592230826 690.715205261,280.592230826 "  />
<polygon style="stroke:rgb(0,0,0); stroke-width:4; fill:rgb(126,0,128); " points="942.715205261,530.007547116 960.715205261,561.184461652 996.715205261,561.184461652 1014.71520526,530.007547116 996.715205261,498.83063258 960.715205261,498.83063258 "  />
<polygon style="stroke:rgb(0,0,0); stroke-width:4; fill:rgb(126,0,128); " points="888.715205261,872.953607015 906.715205261,904.130521551 942.715205261,904.130521551 960.715205261,872.953607015 942.715205261,841.776692478 906.715205261,841.776692478 "  />
<polygon style="stroke:rgb(0,0,0); stroke-width:4; fill:rgb(126,0,128); " points="564.715205261,997.66126516 582.715205261,1028.8381797 618.715205261,1028.8381797 636.715205261,997.66126516 618.715205261,966.484350623 582.715205261,966.484350623 "  />
<polygon style="stroke:rgb(0,0,0); stroke-width:4; fill:rgb(126,0,128); " points="294.715205261,779.422863406 312.715205261,810.599777942 348.715205261,810.599777942 366.715205261,779.422863406 348.715205261,748.24594887 312.715205261,748.24594887 "  />
<polygon style="stroke:rgb(0,0,0); stroke-width:4; fill:rgb(126,0,128); " points="348.715205261,436.476803507 366.715205261,467.653718044 402.715205261,467.653718044 420.715205261,436.476803507 402.715205261,405.299888971 366.715205261,405.299888971 "  />
<polygon style="stroke:rgb(0,0,0); stroke-width:4; fill:rgb(126,0,128); " points="888.715205261,436.476803507 906.715205261,467.653718044 942.715205261,467.653718044 960.715205261,436.476803507 942.715205261,405.299888971 906.715205261,405.299888971 "  />
<polygon style="stroke:rgb(0,0,0); stroke-width:4; fill:rgb(126,0,128); " points="942.715205261,779.422863406 960.715205261,810.599777942 996.715205261,810.599777942 1014.71520526,779.422863406 996.715205261,748.24594887 960.715205261,748.24594887 "  />
<polygon style="stroke:rgb(0,0,0); stroke-width:4; fill:rgb(126,0,128); " points="672.715205261,997.66126516 690.715205261,1028.8381797 726.715205261,1028.8381797 744.715205261,997.66126516 726.715205261,966.484350623 690.715205261,966.484350623 "  />
<polygon style="stroke:rgb(0,0,0); stroke-width:4; fill:rgb(126,0,128); " points="348.715205261,872.953607015 366.715205261,904.130521551 402.715205261,904.130521551 420.715205261,872.953607015 402.715205261,841.776692478 366.715205261,841.776692478 "  />
<polygon style="stroke:rgb(0,0,0); stroke-width:4; fill:rgb(126,0,128); " points="294.715205261,530.007547116 312.715205261,561.184461652 348.715205261,561.184461652 366.715205261,530.007547116 348.715205261,498.83063258 312.715205261,498.83063258 "  />
<polygon style="stroke:rgb(0,0,0); stroke-width:4; fill:rgb(126,0,128); " points="564.715205261,311.769145362 582.715205261,342.946059899 618.715205261,342.946059899 636.715205261,311.769145362 618.715205261,280.592230826 582.715205261,280.592230826 "  />
<polygon style="stroke:rgb(0,0,0); stroke-width:4; fill:rgb(179,0,75); " points="726.715205261,342.946059899 744.715205261,374.122974435 780.715205261,374.122974435 798.715205261,342.946059899 780.715205261,311.769145362 744.715205261,311.769145362 "  />
<polygon style="stroke:rgb(0,0,0); stroke-width:4; fill:rgb(179,0,75); " points="942.715205261,592.361376189 960.715205261,623.538290725 996.715205261,623.538290725 1014.71520526,592.361376189 996.715205261,561.184461652 960.715205261,561.184461652 "  />
<polygon style="stroke:rgb(0,0,0); stroke-width:4; fill:rgb(179,0,75); " points="834.715205261,904.130521551 852.715205261,935.307436087 888.715205261,935.307436087 906.715205261,904.130521551 888.715205261,872.953607015 852.715205261,872.953607015 "  />
<polygon style="stroke:rgb(0,0,0); stroke-width:4; fill:rgb(179,0,75); " points="510.715205261,966.484350623 528.715205261,997.66126516 564.715205261,997.66126516 582.715205261,966.484350623 564.715205261,935.307436087 528.715205261,935.307436087 "  />
<polygon style="stroke:rgb(0,0,0); stroke-width:4; fill:rgb(179,0,75); " points="294.715205261,717.069034334 312.715205261,748.24594887 348.715205261,748.24594887 366.715205261,717.069034334 348.715205261,685.892119797 312.715205261,685.892119797 "  />
<polygon style="stroke:rgb(0,0,0); stroke-width:4; fill:rgb(179,0,75); " points="402.715205261,405.299888971 420.715205261,436.476803507 456.715205261,436.476803507 474.715205261,405.299888971 456.715205261,374.122974435 420.715205261,374.122974435 "  />
<polygon style="stroke:rgb(0,0,0); stroke-width:4; fill:rgb(179,0,75); " points="834.715205261,405.299888971 852.715205261,436.476803507 888.715205261,436.476803507 906.715205261,405.299888971 888.715205261,374.122974435 852.715205261,374.122974435 "  />
<polygon style="stroke:rgb(0,0,0); stroke-width:4; fill:rgb(179,0,75); " points="942.715205261,717.069034334 960.715205261,748.24594887 996.715205261,748.24594887 1014.71520526,717.069034334 996.715205261,685.892119797 960.715205261,685.892119797 "  />
<polygon style="stroke:rgb(0,0,0); stroke-width:4; fill:rgb(179,0,75); " points="726.715205261,966.484350623 744.715205261,997.66126516 780.715205261,997.66126516 798.715205261,966.484350623 780.715205261,935.307436087 744.715205261,935.307436087 "  />
<polygon style="stroke:rgb(0,0,0); stroke-width:4; fill:rgb(179,0,75); " points="402.715205261,904.130521551 420.715205261,935.307436087 456.715205261,935.307436087 474.715205261,904.130521551 456.715205261,872.953607015 420.715205261,872.953607015 "  />
<polygon style="stroke:rgb(0,0,0); stroke-width:4; fill:rgb(179,0,75); " points="294.715205261,592.361376189 312.715205261,623.538290725 348.715205261,623.538290725 366.715205261,592.361376189 348.715205261,561.184461652 312.715205261,561.184461652 "  />
<polygon style="stroke:rgb(0,0,0); stroke-width:4; fill:rgb(179,0,75); " points="510.715205261,342.946059899 528.715205261,374.122974435 564.715205261,374.122974435 582.715205261,342.946059899 564.715205261,311.769145362 528.715205261,311.769145362 "  />
<polygon style="stroke:rgb(0,0,0); stroke-width:4; fill:rgb(226,0,28); " points="780.715205261,374.122974435 798.715205261,405.299888971 834.715205261,405.299888971 852.715205261,374.122974435 834.715205261,342.946059899 798.715205261,342.946059899 "  />
<polygon style="stroke:rgb(0,0,0); stroke-width:4; fill:rgb(226,0,28); " points="942.715205261,654.715205261 960.715205261,685.892119797 996.715205261,685.892119797 1014.71520526,654.715205261 996.715205261,623.538290725 960.715205261,623.538290725 "  />
<polygon style="stroke:rgb(0,0,0); stroke-width:4; fill:rgb(226,0,28); " points="780.715205261,935.307436087 798.715205261,966.484350623 834.715205261,966.484350623 852.715205261,935.307436087 834.715205261,904.130521551 798.715205261,904.130521551 "  />
<polygon style="stroke:rgb(0,0,0); stroke-width:4; fill:rgb(226,0,28); " points="456.715205261,935.307436087 474.715205261,966.484350623 510.715205261,966.484350623 528.715205261,935.307436087 510.715205261,904.130521551 474.715205261,904.130521551 "  />
<polygon style="stroke:rgb(0,0,0); stroke-width:4; fill:rgb(226,0,28); " points="294.715205261,654.715205261 312.715205261,685.892119797 348.715205261,685.892119797 366.715205261,654.715205261 348.715205261,623.538290725 312.715205261,623.538290725 "  />
<polygon style="stroke:rgb(0,0,0); stroke-width:4; fill:rgb(226,0,28); " points="456.715205261,374.122974435 474.715205261,405.299888971 510.715205261,405.299888971 528.715205261,374.122974435 510.715205261,342.946059899 474.715205261,342.946059899 "  />
<polygon style="stroke:rgb(0,0,0); stroke-width:4; fill:rgb(273,0,-18); " points="672.715205261,249.41531629 690.715205261,280.592230826 726.715205261,280.592230826 744.715205261,249.41531629 726.715205261,218.238401754 690.715205261,218.238401754 "  />
<polygon style="stroke:rgb(0,0,0); stroke-width:4; fill:rgb(273,0,-18); " points="996.715205261,498.83063258 1014.71520526,530.007547116 1050.71520526,530.007547116 1068.71520526,498.83063258 1050.71520526,467.653718044 1014.71520526,467.653718044 "  />
<polygon style="stroke:rgb(0,0,0); stroke-width:4; fill:rgb(273,0,-18); " points="942.715205261,904.130521551 960.715205261,935.307436087 996.715205261,935.307436087 1014.71520526,904.130521551 996.715205261,872.953607015 960.715205261,872.953607015 "  />
<polygon style="stroke:rgb(0,0,0); stroke-width:4; fill:rgb(273,0,-18); " points="564.715205261,1060.01509423 582.715205261,1091.19200877 618.715205261,1091.19200877 636.715205261,1060.01509423 618.715205261,1028.8381797 582.715205261,1028.8381797 "  />
<polygon style="stroke:rgb(0,0,0); stroke-width:4; fill:rgb(273,0,-18); " points="240.715205261,810.599777942 258.715205261,841.776692478 294.715205261,841.776692478 312.715205261,810.599777942 294.715205261,779.422863406 258.715205261,779.422863406 "  />
<polygon style="stroke:rgb(0,0,0); stroke-width:4; fill:rgb(273,0,-18); " points="294.715205261,405.299888971 312.715205261,436.476803507 348.715205261,436.476803507 366.715205261,405.299888971 348.715205261,374.122974435 312.715205261,374.122974435 "  />
<polygon style="stroke:rgb(0,0,0); stroke-width:4; fill:rgb(273,0,-18); " points="942.715205261,405.299888971 960.715205261,436.476803507 996.715205261,436.476803507 1014.71520526,405.299888971 996.715205261,374.122974435 960.715205261,374.122974435 "  />
<polygon style="stroke:rgb(0,0,0); stroke-width:4; fill:rgb(273,0,-18); " points="996.715205261,810.599777942 1014.71520526,841.776692478 1050.71520526,841.776692478 1068.71520526,810.599777942 1050.71520526,779.422863406 1014.71520526,779.422863406 "  />
<polygon style="stroke:rgb(0,0,0); stroke-width:4; fill:rgb(273,0,-18); " points="672.715205261,1060.01509423 690.715205261,1091.19200877 726.715205261,1091.19200877 744.715205261,1060.01509423 726.715205261,1028.8381797 690.715205261,1028.8381797 "  />
<polygon style="stroke:rgb(0,0,0); stroke-width:4; fill:rgb(273,0,-18); " points="294.715205261,904.130521551 312.715205261,935.307436087 348.715205261,935.307436087 366.715205261,904.130521551 348.715205261,872.953607015 312.715205261,872.953607015 "  />
<polygon style="stroke:rgb(0,0,0); stroke-width:4; fill:rgb(273,0,-18); " points="240.715205261,498.83063258 258.715205261,530.007547116 294.715205261,530.007547116 312.715205261,498.83063258 294.715205261,467.653718044 258.715205261,467.653718044 "  />
<polygon style="stroke:rgb(0,0,0); stroke-width:4; fill:rgb(273,0,-18); " points="564.715205261,249.41531629 582.715205261,280.592230826 618.715205261,280.592230826 636.715205261,249.41531629 618.715205261,218.238401754 582.715205261,218.238401754 "  />
<polygon style="stroke:rgb(0,0,0); stroke-width:4; fill:rgb(206,0,48); " points="726.715205261,280.592230826 744.715205261,311.769145362 780.715205261,311.769145362 798.715205261,280.592230826 780.715205261,249.41531629 744.715205261,249.41531629 "  />
<polygon style="stroke:rgb(0,0,0); stroke-width:4; fill:rgb(206,0,48); " points="996.715205261,561.184461652 1014.71520526,592.361376189 1050.71520526,592.361376189 1068.71520526,561.184461652 1050.71520526,530.007547116 1014.71520526,530.007547116 "  />
<polygon style="stroke:rgb(0,0,0); stroke-width:4; fill:rgb(206,0,48); " points="888.715205261,935.307436087 906.715205261,966.484350623 942.715205261,966.484350623 960.715205261,935.307436087 942.715205261,904.130521551 906.715205261,904.130521551 "  />
<polygon style="stroke:rgb(0,0,0); stroke-width:4; fill:rgb(206,0,48); " points="510.715205261,1028.8381797 528.715205261,1060.01509423 564.715205261,1060.01509423 582.715205261,1028.8381797 564.715205261,997.66126516 528.715205261,997.66126516 "  />
<polygon style="stroke:rgb(0,0,0); stroke-width:4; fill:rgb(206,0,48); " points="240.715205261,748.24594887 258.715205261,779.422863406 294.715205261,779.422863406 312.715205261,748.24594887 294.715205261,717.069034334 258.715205261,717.069034334 "  />
<polygon style="stroke:rgb(0,0,0); stroke-width:4; fill:rgb(206,0,48); " points="348.715205261,374.122974435 366.715205261,405.299888971 402.715205261,405.299888971 420.715205261,374.122974435 402.715205261,342.946059899 366.715205261,342.946059899 "  />
<polygon style="stroke:rgb(0,0,0); stroke-width:4; fill:rgb(206,0,48); " points="888.715205261,374.122974435 906.715205261,405.299888971 942.715205261,405.299888971 960.715205261,374.122974435 942.715205261,342.946059899 906.715205261,342.946059899 "  />
<polygon style="stroke:rgb(0,0,0); stroke-width:4; fill:rgb(206,0,48); " points="996.715205261,748.24594887 1014.71520526,779.422863406 1050.71520526,779.422863406 1068.71520526,748.24594887 1050.71520526,717.069034334 1014.71520526,717.069034334 "  />
<polygon style="stroke:rgb(0,0,0); stroke-width:4; fill:rgb(206,0,48); " points="726.715205261,1028.8381797 744.715205261,1060.01509423 780.715205261,1060.01509423 798.715205261,1028.8381797 780.715205261,997.66126516 744.715205261,997.66126516 "  />
<polygon style="stroke:rgb(0,0,0); stroke-width:4; fill:rgb(206,0,48); " points="348.715205261,935.307436087 366.715205261,966.484350623 402.715205261,966.484350623 420.715205261,935.307436087 402.715205261,904.130521551 366.715205261,904.130521551 "  />
<polygon style="stroke:rgb(0,0,0); stroke-width:4; fill:rgb(206,0,48); " points="240.715205261,561.184461652 258.715205261,592.361376189 294.715205261,592.361376189 312.715205261,561.184461652 294.715205261,530.007547116 258.715205261,530.007547116 "  />
<polygon style="stroke:rgb(0,0,0); stroke-width:4; fill:rgb(206,0,48); " points="510.715205261,280.592230826 528.715205261,311.769145362 564.715205261,311.769145362 582.715205261,280.592230826 564.715205261,249.41531629 528.715205261,249.41531629 "  />
<polygon style="stroke:rgb(0,0,0); stroke-width:4; fill:rgb(138,0,116); " points="780.715205261,311.769145362 798.715205261,342.946059899 834.715205261,342.946059899 852.715205261,311.769145362 834.715205261,280.592230826 798.715205261,280.592230826 "  />
<polygon style="stroke:rgb(0,0,0); stroke-width:4; fill:rgb(138,0,116); " points="996.715205261,623.538290725 1014.71520526,654.715205261 1050.71520526,654.715205261 1068.71520526,623.538290725 1050.71520526,592.361376189 1014.71520526,592.361376189 "  />
<polygon style="stroke:rgb(0,0,0); stroke-width:4; fill:rgb(138,0,116); " points="834.715205261,966.484350623 852.715205261,997.66126516 888.715205261,997.66126516 906.715205261,966.484350623 888.715205261,935.307436087 852.715205261,935.307436087 "  />
<polygon style="stroke:rgb(0,0,0); stroke-width:4; fill:rgb(138,0,116); " points="456.715205261,997.66126516 474.715205261,1028.8381797 510.715205261,1028.8381797 528.715205261,997.66126516 510.715205261,966.484350623 474.715205261,966.484350623 "  />
<polygon style="stroke:rgb(0,0,0); stroke-width:4; fill:rgb(138,0,116); " points="240.715205261,685.892119797 258.715205261,717.069034334 294.715205261,717.069034334 312.715205261,685.892119797 294.715205261,654.715205261 258.715205261,654.715205261 "  />
<polygon style="stroke:rgb(0,0,0); stroke-width:4; fill:rgb(138,0,116); " points="402.715205261,342.946059899 420.715205261,374.122974435 456.715205261,374.122974435 474.715205261,342.946059899 456.715205261,311.769145362 420.715205261,311.769145362 "  />
<polygon style="stroke:rgb(0,0,0); stroke-width:4; fill:rgb(138,0,116); " points="834.715205261,342.946059899 852.715205261,374.122974435 888.715205261,374.122974435 906.715205261,342.946059899 888.715205261,311.769145362 852.715205261,311.769145362 "  />
<polygon style="stroke:rgb(0,0,0); stroke-width:4; fill:rgb(138,0,116); " points="996.715205261,685.892119797 1014.71520526,717.069034334 1050.71520526,717.069034334 1068.71520526,685.892119797 1050.71520526,654.715205261 1014.71520526,654.715205261 "  />
<polygon style="stroke:rgb(0,0,0); stroke-width:4; fill:rgb(138,0,116); " points="780.715205261,997.66126516 798.715205261,1028.8381797 834.715205261,1028.8381797 852.715205261,997.66126516 834.715205261,966.484350623 798.715205261,966.484350623 "  />
<polygon style="stroke:rgb(0,0,0); stroke-width:4; fill:rgb(138,0,116); " points="402.715205261,966.484350623 420.715205261,997.66126516 456.715205261,997.66126516 474.715205261,966.484350623 456.715205261,935.307436087 420.715205261,935.307436087 "  />
<polygon style="stroke:rgb(0,0,0); stroke-width:4; fill:rgb(138,0,116); " points="240.715205261,623.538290725 258.715205261,654.715205261 294.715205261,654.715205261 312.715205261,623.538290725 294.715205261,592.361376189 258.715205261,592.361376189 "  />
<polygon style="stroke:rgb(0,0,0); stroke-width:4; fill:rgb(138,0,116); " points="456.715205261,311.769145362 474.715205261,342.946059899 510.715205261,342.946059899 528.715205261,311.769145362 510.715205261,280.592230826 474.715205261,280.592230826 "  />
</svg>
