<?xml version="1.0" encoding="ISO-8859-1" standalone="no"?><svg xmlns="http://www.w3.org/2000/svg" version="1.1" xmlns:xlink="http://www.w3.org/1999/xlink"  >
<polygon style="stroke:rgb(0,0,0); stroke-width:4; fill:rgb(96,0,158); " points="338.122974435,374.122974435 356.122974435,405.299888971 392.122974435,405.299888971 410.122974435,374.122974435 392.122974435,342.946059899 356.122974435,342.946059899 "  />
<polygon style="stroke:rgb(0,0,0); stroke-width:4; fill:rgb(199,0,55); " points="338.122974435,311.769145362 356.122974435,342.946059899 392.122974435,342.946059899 410.122974435,311.769145362 392.122974435,280.592230826 356.122974435,280.592230826 "  />
<polygon style="stroke:rgb(0,0,0); stroke-width:4; fill:rgb(199,0,55); " points="392.122974435,342.946059899 410.122974435,374.122974435 446.122974435,374.122974435 464.122974435,342.946059899 446.122974435,311.769145362 410.122974435,311.769145362 "  />
<polygon style="stroke:rgb(0,0,0); stroke-width:4; fill:rgb(199,0,55); " points="392.122974435,405.299888971 410.122974435,436.476803507 446.122974435,436.476803507 464.122974435,405.299888971 446.122974435,374.122974435 410.122974435,374.122974435 "  />
<polygon style="stroke:rgb(0,0,0); stroke-width:4; fill:rgb(199,0,55); " points="338.122974435,436.476803507 356.122974435,467.653718044 392.122974435,467.653718044 410.122974435,436.476803507 392.122974435,405.299888971 356.122974435,405.299888971 "  />
<polygon style="stroke:rgb(0,0,0); stroke-width:4; fill:rgb(199,0,55); " points="284.122974435,405.299888971 302.122974435,436.476803507 338.122974435,436.476803507 356.122974435,405.299888971 338.122974435,374.122974435 302.122974435,374.122974435 "  />
<polygon style="stroke:rgb(0,0,0); stroke-width:4; fill:rgb(199,0,55); " points="284.122974435,342.946059899 302.122974435,374.122974435 338.122974435,374.122974435 356.122974435,342.946059899 338.122974435,311.769145362 302.122974435,311.769145362 "  />
<polygon style="stroke:rgb(0,0,0); stroke-width:4; fill:rgb(192,0,62); " points="338.122974435,249.41531629 356.122974435,280.592230826 392.122974435,280.592230826 410.122974435,249.41531629 392.122974435,218.238401754 356.122974435,218.238401754 "  />
<polygon style="stroke:rgb(0,0,0); stroke-width:4; fill:rgb(192,0,62); " points="446.122974435,311.769145362 464.122974435,342.946059899 500.122974435,342.946059899 518.122974435,311.769145362 500.122974435,280.592230826 464.122974435,280.592230826 "  />
<polygon style="stroke:rgb(0,0,0); stroke-width:4; fill:rgb(192,0,62); " points="446.122974435,436.476803507 464.122974435,467.653718044 500.122974435,467.653718044 518.122974435,436.476803507 500.122974435,405.299888971 464.122974435,405.299888971 "  />
<polygon style="stroke:rgb(0,0,0); stroke-width:4; fill:rgb(192,0,62); " points="338.122974435,498.83063258 356.122974435,530.007547116 392.122974435,530.007547116 410.122974435,498.83063258 392.122974435,467.653718044 356.122974435,467.653718044 "  />
<polygon style="stroke:rgb(0,0,0); stroke-width:4; fill:rgb(192,0,62); " points="230.122974435,436.476803507 248.122974435,467.653718044 284.122974435,467.653718044 302.122974435,436.476803507 284.122974435,405.299888971 248.122974435,405.299888971 "  />
<polygon style="stroke:rgb(0,0,0); stroke-width:4; fill:rgb(192,0,62); " points="230.122974435,311.769145362 248.122974435,342.946059899 284.122974435,342.946059899 302.122974435,311.769145362 284.122974435,280.592230826 248.122974435,280.592230826 "  />
<polygon style="stroke:rgb(0,0,0); stroke-width:4; fill:rgb(92,0,162); " points="338.122974435,187.061487217 356.122974435,218.238401754 392.122974435,218.238401754 410.122974435,187.061487217 392.122974435,155.884572681 356.122974435,155.884572681 "  />
<polygon style="stroke:rgb(0,0,0); stroke-width:4; fill:rgb(92,0,162); " points="500.122974435,280.592230826 518.122974435,311.769145362 554.122974435,311.769145362 572.122974435,280.592230826 554.122974435,249.41531629 518.122974435,249.41531629 "  />
<polygon style="stroke:rgb(0,0,0); stroke-width:4; fill:rgb(92,0,162); " points="500.122974435,467.653718044 518.122974435,498.83063258 554.122974435,498.83063258 572.122974435,467.653718044 554.122974435,436.476803507 518.122974435,436.476803507 "  />
<polygon style="stroke:rgb(0,0,0); stroke-width:4; fill:rgb(92,0,162); " points="338.122974435,561.184461652 356.122974435,592.361376189 392.122974435,592.361376189 410.122974435,561.184461652 392.122974435,530.007547116 356.122974435,530.007547116 "  />
<polygon style="stroke:rgb(0,0,0); stroke-width:4; fill:rgb(92,0,162); " points="176.122974435,467.653718044 194.122974435,498.83063258 230.122974435,498.83063258 248.122974435,467.653718044 230.122974435,436.476803507 194.122974435,436.476803507 "  />
<polygon style="stroke:rgb(0,0,0); stroke-width:4; fill:rgb(92,0,162); " points="176.122974435,280.592230826 194.122974435,311.769145362 230.122974435,311.769145362 248.122974435,280.592230826 230.122974435,249.41531629 194.122974435,249.41531629 "  />
<polygon style="stroke:rgb(0,0,0); stroke-width:4; fill:rgb(90,0,164); " points="392.122974435,280.592230826 410.122974435,311.769145362 446.122974435,311.769145362 464.122974435,280.592230826 446.122974435,249.41531629 410.122974435,249.41531629 "  />
<polygon style="stroke:rgb(0,0,0); stroke-width:4; fill:rgb(90,0,164); " points="446.122974435,374.122974435 464.122974435,405.299888971 500.122974435,405.299888971 518.122974435,374.122974435 500.122974435,342.946059899 464.122974435,342.946059899 "  />
<polygon style="stroke:rgb(0,0,0); stroke-width:4; fill:rgb(90,0,164); " points="392.122974435,467.653718044 410.122974435,498.83063258 446.122974435,498.83063258 464.122974435,467.653718044 446.122974435,436.476803507 410.122974435,436.476803507 "  />
<polygon style="stroke:rgb(0,0,0); stroke-width:4; fill:rgb(90,0,164); " points="284.122974435,467.653718044 302.122974435,498.83063258 338.122974435,498.83063258 356.122974435,467.653718044 338.122974435,436.476803507 302.122974435,436.476803507 "  />
<polygon style="stroke:rgb(0,0,0); stroke-width:4; fill:rgb(90,0,164); " points="230.122974435,374.122974435 248.122974435,405.299888971 284.122974435,405.299888971 302.122974435,374.122974435 284.122974435,342.946059899 248.122974435,342.946059899 "  />
<polygon style="stroke:rgb(0,0,0); stroke-width:4; fill:rgb(90,0,164); " points="284.122974435,280.592230826 302.122974435,311.769145362 338.122974435,311.769145362 356.122974435,280.592230826 338.122974435,249.41531629 302.122974435,249.41531629 "  />
<polygon style="stroke:rgb(0,0,0); stroke-width:4; fill:rgb(217,0,37); " points="392.122974435,218.238401754 410.122974435,249.41531629 446.122974435,249.41531629 464.122974435,218.238401754 446.122974435,187.061487217 410.122974435,187.061487217 "  />
<polygon style="stroke:rgb(0,0,0); stroke-width:4; fill:rgb(217,0,37); " points="500.122974435,342.946059899 518.122974435,374.122974435 554.122974435,374.122974435 572.122974435,342.946059899 554.122974435,311.769145362 518.122974435,311.769145362 "  />
<polygon style="stroke:rgb(0,0,0); stroke-width:4; fill:rgb(217,0,37); " points="446.122974435,498.83063258 464.122974435,530.007547116 500.122974435,530.007547116 518.122974435,498.83063258 500.122974435,467.653718044 464.122974435,467.653718044 "  />
<polygon style="stroke:rgb(0,0,0); stroke-width:4; fill:rgb(217,0,37); " points="284.122974435,530.007547116 302.122974435,561.184461652 338.122974435,561.184461652 356.122974435,530.007547116 338.122974435,498.83063258 302.122974435,498.83063258 "  />
<polygon style="stroke:rgb(0,0,0); stroke-width:4; fill:rgb(217,0,37); " points="176.122974435,405.299888971 194.122974435,436.476803507 230.122974435,436.476803507 248.122974435,405.299888971 230.122974435,374.122974435 194.122974435,374.122974435 "  />
<polygon style="stroke:rgb(0,0,0); stroke-width:4; fill:rgb(217,0,37); " points="230.122974435,249.41531629 248.122974435,280.592230826 284.122974435,280.592230826 302.122974435,249.41531629 284.122974435,218.238401754 248.122974435,218.238401754 "  />
<polygon style="stroke:rgb(0,0,0); stroke-width:4; fill:rgb(217,0,37); " points="446.122974435,249.41531629 464.122974435,280.592230826 500.122974435,280.592230826 518.122974435,249.41531629 500.122974435,218.238401754 464.122974435,218.238401754 "  />
<polygon style="stroke:rgb(0,0,0); stroke-width:4; fill:rgb(217,0,37); " points="500.122974435,405.299888971 518.122974435,436.476803507 554.122974435,436.476803507 572.122974435,405.299888971 554.122974435,374.122974435 518.122974435,374.122974435 "  />
<polygon style="stroke:rgb(0,0,0); stroke-width:4; fill:rgb(217,0,37); " points="392.122974435,530.007547116 410.122974435,561.184461652 446.122974435,561.184461652 464.122974435,530.007547116 446.122974435,498.83063258 410.122974435,498.83063258 "  />
<polygon style="stroke:rgb(0,0,0); stroke-width:4; fill:rgb(217,0,37); " points="230.122974435,498.83063258 248.122974435,530.007547116 284.122974435,530.007547116 302.122974435,498.83063258 284.122974435,467.653718044 248.122974435,467.653718044 "  />
<polygon style="stroke:rgb(0,0,0); stroke-width:4; fill:rgb(217,0,37); " points="176.122974435,342.946059899 194.122974435,374.122974435 230.122974435,374.122974435 248.122974435,342.946059899 230.122974435,311.769145362 194.122974435,311.769145362 "  />
<polygon style="stroke:rgb(0,0,0); stroke-width:4; fill:rgb(217,0,37); " points="284.122974435,218.238401754 302.122974435,249.41531629 338.122974435,249.41531629 356.122974435,218.238401754 338.122974435,187.061487217 302.122974435,187.061487217 "  />
<polygon style="stroke:rgb(0,0,0); stroke-width:4; fill:rgb(69,0,185); " points="446.122974435,187.061487217 464.122974435,218.238401754 500.122974435,218.238401754 518.122974435,187.061487217 500.122974435,155.884572681 464.122974435,155.884572681 "  />
<polygon style="stroke:rgb(0,0,0); stroke-width:4; fill:rgb(69,0,185); " points="554.122974435,374.122974435 572.122974435,405.299888971 608.122974435,405.299888971 626.122974435,374.122974435 608.122974435,342.946059899 572.122974435,342.946059899 "  />
<polygon style="stroke:rgb(0,0,0); stroke-width:4; fill:rgb(69,0,185); " points="446.122974435,561.184461652 464.122974435,592.361376189 500.122974435,592.361376189 518.122974435,561.184461652 500.122974435,530.007547116 464.122974435,530.007547116 "  />
<polygon style="stroke:rgb(0,0,0); stroke-width:4; fill:rgb(69,0,185); " points="230.122974435,561.184461652 248.122974435,592.361376189 284.122974435,592.361376189 302.122974435,561.184461652 284.122974435,530.007547116 248.122974435,530.007547116 "  />
<polygon style="stroke:rgb(0,0,0); stroke-width:4; fill:rgb(69,0,185); " points="122.122974435,374.122974435 140.122974435,405.299888971 176.122974435,405.299888971 194.122974435,374.122974435 176.122974435,342.946059899 140.122974435,342.946059899 "  />
<polygon style="stroke:rgb(0,0,0); stroke-width:4; fill:rgb(69,0,185); " points="230.122974435,187.061487217 248.122974435,218.238401754 284.122974435,218.238401754 302.122974435,187.061487217 284.122974435,155.884572681 248.122974435,155.884572681 "  />
<polygon style="stroke:rgb(0,0,0); stroke-width:4; fill:rgb(148,0,106); " points="392.122974435,155.884572681 410.122974435,187.061487217 446.122974435,187.061487217 464.122974435,155.884572681 446.122974435,124.707658145 410.122974435,124.707658145 "  />
<polygon style="stroke:rgb(0,0,0); stroke-width:4; fill:rgb(148,0,106); " points="554.122974435,311.769145362 572.122974435,342.946059899 608.122974435,342.946059899 626.122974435,311.769145362 608.122974435,280.592230826 572.122974435,280.592230826 "  />
<polygon style="stroke:rgb(0,0,0); stroke-width:4; fill:rgb(148,0,106); " points="500.122974435,530.007547116 518.122974435,561.184461652 554.122974435,561.184461652 572.122974435,530.007547116 554.122974435,498.83063258 518.122974435,498.83063258 "  />
<polygon style="stroke:rgb(0,0,0); stroke-width:4; fill:rgb(148,0,106); " points="284.122974435,592.361376189 302.122974435,623.538290725 338.122974435,623.538290725 356.122974435,592.361376189 338.122974435,561.184461652 302.122974435,561.184461652 "  />
<polygon style="stroke:rgb(0,0,0); stroke-width:4; fill:rgb(148,0,106); " points="122.122974435,436.476803507 140.122974435,467.653718044 176.122974435,467.653718044 194.122974435,436.476803507 176.122974435,405.299888971 140.122974435,405.299888971 "  />
<polygon style="stroke:rgb(0,0,0); stroke-width:4; fill:rgb(148,0,106); " points="176.122974435,218.238401754 194.122974435,249.41531629 230.122974435,249.41531629 248.122974435,218.238401754 230.122974435,187.061487217 194.122974435,187.061487217 "  />
<polygon style="stroke:rgb(0,0,0); stroke-width:4; fill:rgb(148,0,106); " points="500.122974435,218.238401754 518.122974435,249.41531629 554.122974435,249.41531629 572.122974435,218.238401754 554.122974435,187.061487217 518.122974435,187.061487217 "  />
<polygon style="stroke:rgb(0,0,0); stroke-width:4; fill:rgb(148,0,106); " points="554.122974435,436.476803507 572.122974435,467.653718044 608.122974435,467.653718044 626.122974435,436.476803507 608.122974435,405.299888971 572.122974435,405.299888971 "  />
<polygon style="stroke:rgb(0,0,0); stroke-width:4; fill:rgb(148,0,106); " points="392.122974435,592.361376189 410.122974435,623.538290725 446.122974435,623.538290725 464.122974435,592.361376189 446.122974435,561.184461652 410.122974435,561.184461652 "  />
<polygon style="stroke:rgb(0,0,0); stroke-width:4; fill:rgb(148,0,106); " points="176.122974435,530.007547116 194.122974435,561.184461652 230.122974435,561.184461652 248.122974435,530.007547116 230.122974435,498.83063258 194.122974435,498.83063258 "  />
<polygon style="stroke:rgb(0,0,0); stroke-width:4; fill:rgb(148,0,106); " points="122.122974435,311.769145362 140.122974435,342.946059899 176.122974435,342.946059899 194.122974435,311.769145362 176.122974435,280.592230826 140.122974435,280.592230826 "  />
<polygon style="stroke:rgb(0,0,0); stroke-width:4; fill:rgb(148,0,106); " points="284.122974435,155.884572681 302.122974435,187.061487217 338.122974435,187.061487217 356.122974435,155.884572681 338.122974435,124.707658145 302.122974435,124.707658145 "  />
</svg>
